<?xml version="1.0"?>

<svg xmlns="http://www.w3.org/2000/svg" xmlns:xlink="http://www.w3.org/1999/xlink" viewBox="0 0 360.00 288.00" width="360.00" height="288.00">
<defs> <style type="text/css"> line, polyline, polygon, path, rect, circle { fill: none; stroke: #000000; stroke-linecap: round; stroke-linejoin: round; stroke-miterlimit: 10.00; } </style>
</defs>
<rect width="100%" height="100%" style="stroke: none; fill: #FFFFFF;"></rect>
<rect x="0.00" y="0.00" width="360.00" height="288.00" style="stroke-width: 1.07; stroke: #FFFFFF; fill: #FFFFFF;"></rect>
<defs> <clipPath id="cpMjIuOTJ8MzU0LjUyfDI2OS4yNnwyMy4wMQ=="> <rect x="22.92" y="23.01" width="331.60" height="246.26"></rect> </clipPath>
</defs>
<rect x="22.92" y="23.01" width="331.60" height="246.26" style="stroke-width: 1.07; stroke: none; fill: #EBEBEB;" clip-path="url(#cpMjIuOTJ8MzU0LjUyfDI2OS4yNnwyMy4wMQ==)"></rect>
<polyline points="22.92,236.54 354.52,236.54 " style="stroke-width: 0.53; stroke: #FFFFFF; stroke-linecap: butt;" clip-path="url(#cpMjIuOTJ8MzU0LjUyfDI2OS4yNnwyMy4wMQ==)"></polyline>
<polyline points="22.92,193.49 354.52,193.49 " style="stroke-width: 0.53; stroke: #FFFFFF; stroke-linecap: butt;" clip-path="url(#cpMjIuOTJ8MzU0LjUyfDI2OS4yNnwyMy4wMQ==)"></polyline>
<polyline points="22.92,150.44 354.52,150.44 " style="stroke-width: 0.53; stroke: #FFFFFF; stroke-linecap: butt;" clip-path="url(#cpMjIuOTJ8MzU0LjUyfDI2OS4yNnwyMy4wMQ==)"></polyline>
<polyline points="22.92,107.40 354.52,107.40 " style="stroke-width: 0.53; stroke: #FFFFFF; stroke-linecap: butt;" clip-path="url(#cpMjIuOTJ8MzU0LjUyfDI2OS4yNnwyMy4wMQ==)"></polyline>
<polyline points="22.92,64.35 354.52,64.35 " style="stroke-width: 0.53; stroke: #FFFFFF; stroke-linecap: butt;" clip-path="url(#cpMjIuOTJ8MzU0LjUyfDI2OS4yNnwyMy4wMQ==)"></polyline>
<polyline points="47.38,269.26 47.38,23.01 " style="stroke-width: 0.53; stroke: #FFFFFF; stroke-linecap: butt;" clip-path="url(#cpMjIuOTJ8MzU0LjUyfDI2OS4yNnwyMy4wMQ==)"></polyline>
<polyline points="138.26,269.26 138.26,23.01 " style="stroke-width: 0.53; stroke: #FFFFFF; stroke-linecap: butt;" clip-path="url(#cpMjIuOTJ8MzU0LjUyfDI2OS4yNnwyMy4wMQ==)"></polyline>
<polyline points="229.14,269.26 229.14,23.01 " style="stroke-width: 0.53; stroke: #FFFFFF; stroke-linecap: butt;" clip-path="url(#cpMjIuOTJ8MzU0LjUyfDI2OS4yNnwyMy4wMQ==)"></polyline>
<polyline points="320.01,269.26 320.01,23.01 " style="stroke-width: 0.53; stroke: #FFFFFF; stroke-linecap: butt;" clip-path="url(#cpMjIuOTJ8MzU0LjUyfDI2OS4yNnwyMy4wMQ==)"></polyline>
<polyline points="22.92,258.07 354.52,258.07 " style="stroke-width: 1.07; stroke: #FFFFFF; stroke-linecap: butt;" clip-path="url(#cpMjIuOTJ8MzU0LjUyfDI2OS4yNnwyMy4wMQ==)"></polyline>
<polyline points="22.92,215.02 354.52,215.02 " style="stroke-width: 1.07; stroke: #FFFFFF; stroke-linecap: butt;" clip-path="url(#cpMjIuOTJ8MzU0LjUyfDI2OS4yNnwyMy4wMQ==)"></polyline>
<polyline points="22.92,171.97 354.52,171.97 " style="stroke-width: 1.07; stroke: #FFFFFF; stroke-linecap: butt;" clip-path="url(#cpMjIuOTJ8MzU0LjUyfDI2OS4yNnwyMy4wMQ==)"></polyline>
<polyline points="22.92,128.92 354.52,128.92 " style="stroke-width: 1.07; stroke: #FFFFFF; stroke-linecap: butt;" clip-path="url(#cpMjIuOTJ8MzU0LjUyfDI2OS4yNnwyMy4wMQ==)"></polyline>
<polyline points="22.92,85.87 354.52,85.87 " style="stroke-width: 1.07; stroke: #FFFFFF; stroke-linecap: butt;" clip-path="url(#cpMjIuOTJ8MzU0LjUyfDI2OS4yNnwyMy4wMQ==)"></polyline>
<polyline points="22.92,42.82 354.52,42.82 " style="stroke-width: 1.07; stroke: #FFFFFF; stroke-linecap: butt;" clip-path="url(#cpMjIuOTJ8MzU0LjUyfDI2OS4yNnwyMy4wMQ==)"></polyline>
<polyline points="92.82,269.26 92.82,23.01 " style="stroke-width: 1.07; stroke: #FFFFFF; stroke-linecap: butt;" clip-path="url(#cpMjIuOTJ8MzU0LjUyfDI2OS4yNnwyMy4wMQ==)"></polyline>
<polyline points="183.70,269.26 183.70,23.01 " style="stroke-width: 1.07; stroke: #FFFFFF; stroke-linecap: butt;" clip-path="url(#cpMjIuOTJ8MzU0LjUyfDI2OS4yNnwyMy4wMQ==)"></polyline>
<polyline points="274.58,269.26 274.58,23.01 " style="stroke-width: 1.07; stroke: #FFFFFF; stroke-linecap: butt;" clip-path="url(#cpMjIuOTJ8MzU0LjUyfDI2OS4yNnwyMy4wMQ==)"></polyline>
<rect x="37.99" y="256.12" width="10.05" height="1.95" style="stroke-width: 1.07; stroke: #D3D3D3; stroke-linecap: square; stroke-linejoin: miter; fill: #BEBEBE;" clip-path="url(#cpMjIuOTJ8MzU0LjUyfDI2OS4yNnwyMy4wMQ==)"></rect>
<rect x="48.04" y="254.17" width="10.05" height="3.89" style="stroke-width: 1.07; stroke: #D3D3D3; stroke-linecap: square; stroke-linejoin: miter; fill: #BEBEBE;" clip-path="url(#cpMjIuOTJ8MzU0LjUyfDI2OS4yNnwyMy4wMQ==)"></rect>
<rect x="58.09" y="256.12" width="10.05" height="1.95" style="stroke-width: 1.07; stroke: #D3D3D3; stroke-linecap: square; stroke-linejoin: miter; fill: #BEBEBE;" clip-path="url(#cpMjIuOTJ8MzU0LjUyfDI2OS4yNnwyMy4wMQ==)"></rect>
<rect x="68.14" y="250.28" width="10.05" height="7.79" style="stroke-width: 1.07; stroke: #D3D3D3; stroke-linecap: square; stroke-linejoin: miter; fill: #BEBEBE;" clip-path="url(#cpMjIuOTJ8MzU0LjUyfDI2OS4yNnwyMy4wMQ==)"></rect>
<rect x="78.19" y="246.39" width="10.05" height="11.68" style="stroke-width: 1.07; stroke: #D3D3D3; stroke-linecap: square; stroke-linejoin: miter; fill: #BEBEBE;" clip-path="url(#cpMjIuOTJ8MzU0LjUyfDI2OS4yNnwyMy4wMQ==)"></rect>
<rect x="88.24" y="226.92" width="10.05" height="31.15" style="stroke-width: 1.07; stroke: #D3D3D3; stroke-linecap: square; stroke-linejoin: miter; fill: #BEBEBE;" clip-path="url(#cpMjIuOTJ8MzU0LjUyfDI2OS4yNnwyMy4wMQ==)"></rect>
<rect x="98.29" y="223.03" width="10.05" height="35.04" style="stroke-width: 1.07; stroke: #D3D3D3; stroke-linecap: square; stroke-linejoin: miter; fill: #BEBEBE;" clip-path="url(#cpMjIuOTJ8MzU0LjUyfDI2OS4yNnwyMy4wMQ==)"></rect>
<rect x="108.33" y="199.67" width="10.05" height="58.40" style="stroke-width: 1.07; stroke: #D3D3D3; stroke-linecap: square; stroke-linejoin: miter; fill: #BEBEBE;" clip-path="url(#cpMjIuOTJ8MzU0LjUyfDI2OS4yNnwyMy4wMQ==)"></rect>
<rect x="118.38" y="191.88" width="10.05" height="66.19" style="stroke-width: 1.07; stroke: #D3D3D3; stroke-linecap: square; stroke-linejoin: miter; fill: #BEBEBE;" clip-path="url(#cpMjIuOTJ8MzU0LjUyfDI2OS4yNnwyMy4wMQ==)"></rect>
<rect x="128.43" y="168.52" width="10.05" height="89.55" style="stroke-width: 1.07; stroke: #D3D3D3; stroke-linecap: square; stroke-linejoin: miter; fill: #BEBEBE;" clip-path="url(#cpMjIuOTJ8MzU0LjUyfDI2OS4yNnwyMy4wMQ==)"></rect>
<rect x="138.48" y="147.11" width="10.05" height="110.96" style="stroke-width: 1.07; stroke: #D3D3D3; stroke-linecap: square; stroke-linejoin: miter; fill: #BEBEBE;" clip-path="url(#cpMjIuOTJ8MzU0LjUyfDI2OS4yNnwyMy4wMQ==)"></rect>
<rect x="148.53" y="129.59" width="10.05" height="128.48" style="stroke-width: 1.07; stroke: #D3D3D3; stroke-linecap: square; stroke-linejoin: miter; fill: #BEBEBE;" clip-path="url(#cpMjIuOTJ8MzU0LjUyfDI2OS4yNnwyMy4wMQ==)"></rect>
<rect x="158.58" y="131.53" width="10.05" height="126.53" style="stroke-width: 1.07; stroke: #D3D3D3; stroke-linecap: square; stroke-linejoin: miter; fill: #BEBEBE;" clip-path="url(#cpMjIuOTJ8MzU0LjUyfDI2OS4yNnwyMy4wMQ==)"></rect>
<rect x="168.62" y="61.45" width="10.05" height="196.61" style="stroke-width: 1.07; stroke: #D3D3D3; stroke-linecap: square; stroke-linejoin: miter; fill: #BEBEBE;" clip-path="url(#cpMjIuOTJ8MzU0LjUyfDI2OS4yNnwyMy4wMQ==)"></rect>
<rect x="178.67" y="34.20" width="10.05" height="223.87" style="stroke-width: 1.07; stroke: #D3D3D3; stroke-linecap: square; stroke-linejoin: miter; fill: #BEBEBE;" clip-path="url(#cpMjIuOTJ8MzU0LjUyfDI2OS4yNnwyMy4wMQ==)"></rect>
<rect x="188.72" y="82.87" width="10.05" height="175.20" style="stroke-width: 1.07; stroke: #D3D3D3; stroke-linecap: square; stroke-linejoin: miter; fill: #BEBEBE;" clip-path="url(#cpMjIuOTJ8MzU0LjUyfDI2OS4yNnwyMy4wMQ==)"></rect>
<rect x="198.77" y="115.96" width="10.05" height="142.11" style="stroke-width: 1.07; stroke: #D3D3D3; stroke-linecap: square; stroke-linejoin: miter; fill: #BEBEBE;" clip-path="url(#cpMjIuOTJ8MzU0LjUyfDI2OS4yNnwyMy4wMQ==)"></rect>
<rect x="208.82" y="139.32" width="10.05" height="118.75" style="stroke-width: 1.07; stroke: #D3D3D3; stroke-linecap: square; stroke-linejoin: miter; fill: #BEBEBE;" clip-path="url(#cpMjIuOTJ8MzU0LjUyfDI2OS4yNnwyMy4wMQ==)"></rect>
<rect x="218.87" y="143.21" width="10.05" height="114.85" style="stroke-width: 1.07; stroke: #D3D3D3; stroke-linecap: square; stroke-linejoin: miter; fill: #BEBEBE;" clip-path="url(#cpMjIuOTJ8MzU0LjUyfDI2OS4yNnwyMy4wMQ==)"></rect>
<rect x="228.92" y="164.63" width="10.05" height="93.44" style="stroke-width: 1.07; stroke: #D3D3D3; stroke-linecap: square; stroke-linejoin: miter; fill: #BEBEBE;" clip-path="url(#cpMjIuOTJ8MzU0LjUyfDI2OS4yNnwyMy4wMQ==)"></rect>
<rect x="238.96" y="193.83" width="10.05" height="64.24" style="stroke-width: 1.07; stroke: #D3D3D3; stroke-linecap: square; stroke-linejoin: miter; fill: #BEBEBE;" clip-path="url(#cpMjIuOTJ8MzU0LjUyfDI2OS4yNnwyMy4wMQ==)"></rect>
<rect x="249.01" y="205.51" width="10.05" height="52.56" style="stroke-width: 1.07; stroke: #D3D3D3; stroke-linecap: square; stroke-linejoin: miter; fill: #BEBEBE;" clip-path="url(#cpMjIuOTJ8MzU0LjUyfDI2OS4yNnwyMy4wMQ==)"></rect>
<rect x="259.06" y="223.03" width="10.05" height="35.04" style="stroke-width: 1.07; stroke: #D3D3D3; stroke-linecap: square; stroke-linejoin: miter; fill: #BEBEBE;" clip-path="url(#cpMjIuOTJ8MzU0LjUyfDI2OS4yNnwyMy4wMQ==)"></rect>
<rect x="269.11" y="234.71" width="10.05" height="23.36" style="stroke-width: 1.07; stroke: #D3D3D3; stroke-linecap: square; stroke-linejoin: miter; fill: #BEBEBE;" clip-path="url(#cpMjIuOTJ8MzU0LjUyfDI2OS4yNnwyMy4wMQ==)"></rect>
<rect x="279.16" y="252.23" width="10.05" height="5.84" style="stroke-width: 1.07; stroke: #D3D3D3; stroke-linecap: square; stroke-linejoin: miter; fill: #BEBEBE;" clip-path="url(#cpMjIuOTJ8MzU0LjUyfDI2OS4yNnwyMy4wMQ==)"></rect>
<rect x="289.21" y="244.44" width="10.05" height="13.63" style="stroke-width: 1.07; stroke: #D3D3D3; stroke-linecap: square; stroke-linejoin: miter; fill: #BEBEBE;" clip-path="url(#cpMjIuOTJ8MzU0LjUyfDI2OS4yNnwyMy4wMQ==)"></rect>
<rect x="299.25" y="254.17" width="10.05" height="3.89" style="stroke-width: 1.07; stroke: #D3D3D3; stroke-linecap: square; stroke-linejoin: miter; fill: #BEBEBE;" clip-path="url(#cpMjIuOTJ8MzU0LjUyfDI2OS4yNnwyMy4wMQ==)"></rect>
<rect x="309.30" y="254.17" width="10.05" height="3.89" style="stroke-width: 1.07; stroke: #D3D3D3; stroke-linecap: square; stroke-linejoin: miter; fill: #BEBEBE;" clip-path="url(#cpMjIuOTJ8MzU0LjUyfDI2OS4yNnwyMy4wMQ==)"></rect>
<rect x="319.35" y="256.12" width="10.05" height="1.95" style="stroke-width: 1.07; stroke: #D3D3D3; stroke-linecap: square; stroke-linejoin: miter; fill: #BEBEBE;" clip-path="url(#cpMjIuOTJ8MzU0LjUyfDI2OS4yNnwyMy4wMQ==)"></rect>
<rect x="329.40" y="254.17" width="10.05" height="3.89" style="stroke-width: 1.07; stroke: #D3D3D3; stroke-linecap: square; stroke-linejoin: miter; fill: #BEBEBE;" clip-path="url(#cpMjIuOTJ8MzU0LjUyfDI2OS4yNnwyMy4wMQ==)"></rect>
<polyline points="38.49,256.78 39.06,256.73 39.63,256.68 40.20,256.63 40.77,256.57 41.34,256.52 41.91,256.47 42.48,256.41 43.05,256.36 43.62,256.30 44.19,256.24 44.76,256.18 45.33,256.12 45.90,256.06 46.47,255.99 47.04,255.93 47.61,255.86 48.19,255.79 48.76,255.72 49.33,255.65 49.90,255.58 50.47,255.50 51.04,255.43 51.61,255.35 52.18,255.27 52.75,255.19 53.32,255.11 53.89,255.02 54.46,254.93 55.03,254.84 55.60,254.75 56.17,254.66 56.74,254.56 57.31,254.46 57.88,254.35 58.45,254.24 59.02,254.13 59.59,254.01 60.16,253.88 60.73,253.75 61.30,253.61 61.87,253.47 62.44,253.32 63.01,253.16 63.58,253.00 64.15,252.83 64.72,252.65 65.29,252.46 65.86,252.27 66.43,252.07 67.00,251.86 67.57,251.64 68.14,251.42 68.71,251.19 69.28,250.96 69.86,250.71 70.43,250.46 71.00,250.21 71.57,249.94 72.14,249.67 72.71,249.40 73.28,249.11 73.85,248.82 74.42,248.52 74.99,248.21 75.56,247.89 76.13,247.56 76.70,247.23 77.27,246.88 77.84,246.52 78.41,246.14 78.98,245.76 79.55,245.36 80.12,244.94 80.69,244.51 81.26,244.06 81.83,243.59 82.40,243.10 82.97,242.60 83.54,242.08 84.11,241.53 84.68,240.97 85.25,240.39 85.82,239.79 86.39,239.17 86.96,238.53 87.53,237.88 88.10,237.21 88.67,236.52 89.24,235.82 89.81,235.11 90.38,234.39 90.95,233.66 91.53,232.92 92.10,232.18 92.67,231.43 93.24,230.68 93.81,229.94 94.38,229.19 94.95,228.44 95.52,227.70 96.09,226.97 96.66,226.23 97.23,225.51 97.80,224.79 98.37,224.09 98.94,223.38 99.51,222.69 100.08,222.00 100.65,221.32 101.22,220.65 101.79,219.98 102.36,219.31 102.93,218.65 103.50,217.99 104.07,217.33 104.64,216.67 105.21,216.00 105.78,215.33 106.35,214.66 106.92,213.98 107.49,213.29 108.06,212.60 108.63,211.89 109.20,211.17 109.77,210.44 110.34,209.69 110.91,208.93 111.48,208.15 112.05,207.36 112.62,206.55 113.20,205.72 113.77,204.88 114.34,204.01 114.91,203.13 115.48,202.23 116.05,201.32 116.62,200.38 117.19,199.42 117.76,198.45 118.33,197.46 118.90,196.45 119.47,195.42 120.04,194.38 120.61,193.33 121.18,192.26 121.75,191.17 122.32,190.07 122.89,188.96 123.46,187.84 124.03,186.71 124.60,185.57 125.17,184.42 125.74,183.26 126.31,182.10 126.88,180.94 127.45,179.77 128.02,178.60 128.59,177.43 129.16,176.25 129.73,175.08 130.30,173.91 130.87,172.74 131.44,171.58 132.01,170.42 132.58,169.26 133.15,168.11 133.72,166.97 134.29,165.83 134.87,164.70 135.44,163.58 136.01,162.47 136.58,161.36 137.15,160.26 137.72,159.16 138.29,158.08 138.86,157.00 139.43,155.93 140.00,154.87 140.57,153.81 141.14,152.76 141.71,151.72 142.28,150.68 142.85,149.64 143.42,148.61 143.99,147.59 144.56,146.57 145.13,145.55 145.70,144.53 146.27,143.52 146.84,142.50 147.41,141.49 147.98,140.47 148.55,139.46 149.12,138.44 149.69,137.42 150.26,136.39 150.83,135.36 151.40,134.32 151.97,133.28 152.54,132.22 153.11,131.15 153.68,130.06 154.25,128.96 154.82,127.84 155.39,126.70 155.96,125.54 156.54,124.35 157.11,123.14 157.68,121.89 158.25,120.61 158.82,119.31 159.39,117.97 159.96,116.59 160.53,115.17 161.10,113.71 161.67,112.22 162.24,110.69 162.81,109.11 163.38,107.50 163.95,105.85 164.52,104.17 165.09,102.45 165.66,100.70 166.23,98.93 166.80,97.14 167.37,95.32 167.94,93.50 168.51,91.66 169.08,89.82 169.65,87.99 170.22,86.17 170.79,84.36 171.36,82.58 171.93,80.84 172.50,79.12 173.07,77.46 173.64,75.85 174.21,74.30 174.78,72.82 175.35,71.41 175.92,70.08 176.49,68.85 177.06,67.71 177.63,66.66 178.21,65.71 178.78,64.86 179.35,64.15 179.92,63.55 180.49,63.05 181.06,62.67 181.63,62.40 182.20,62.28 182.77,62.27 183.34,62.37 183.91,62.57 184.48,62.91 185.05,63.37 185.62,63.93 186.19,64.59 186.76,65.35 187.33,66.22 187.90,67.18 188.47,68.23 189.04,69.35 189.61,70.54 190.18,71.82 190.75,73.16 191.32,74.55 191.89,75.99 192.46,77.48 193.03,79.01 193.60,80.57 194.17,82.16 194.74,83.77 195.31,85.40 195.88,87.05 196.45,88.70 197.02,90.36 197.59,92.01 198.16,93.67 198.73,95.31 199.31,96.95 199.88,98.58 200.45,100.20 201.02,101.80 201.59,103.38 202.16,104.95 202.73,106.51 203.30,108.05 203.87,109.57 204.44,111.07 205.01,112.55 205.58,114.02 206.15,115.46 206.72,116.89 207.29,118.30 207.86,119.69 208.43,121.07 209.00,122.42 209.57,123.76 210.14,125.07 210.71,126.36 211.28,127.64 211.85,128.89 212.42,130.11 212.99,131.32 213.56,132.50 214.13,133.66 214.70,134.79 215.27,135.89 215.84,136.97 216.41,138.03 216.98,139.07 217.55,140.08 218.12,141.07 218.69,142.04 219.26,143.00 219.83,143.93 220.40,144.86 220.98,145.77 221.55,146.67 222.12,147.57 222.69,148.46 223.26,149.35 223.83,150.25 224.40,151.15 224.97,152.06 225.54,152.98 226.11,153.92 226.68,154.87 227.25,155.83 227.82,156.82 228.39,157.83 228.96,158.85 229.53,159.90 230.10,160.97 230.67,162.06 231.24,163.17 231.81,164.30 232.38,165.44 232.95,166.60 233.52,167.78 234.09,168.97 234.66,170.16 235.23,171.36 235.80,172.57 236.37,173.77 236.94,174.98 237.51,176.18 238.08,177.38 238.65,178.57 239.22,179.75 239.79,180.91 240.36,182.07 240.93,183.21 241.50,184.34 242.07,185.44 242.65,186.54 243.22,187.61 243.79,188.67 244.36,189.72 244.93,190.74 245.50,191.75 246.07,192.75 246.64,193.73 247.21,194.70 247.78,195.66 248.35,196.61 248.92,197.55 249.49,198.48 250.06,199.40 250.63,200.32 251.20,201.23 251.77,202.14 252.34,203.05 252.91,203.96 253.48,204.87 254.05,205.77 254.62,206.68 255.19,207.59 255.76,208.51 256.33,209.42 256.90,210.34 257.47,211.26 258.04,212.18 258.61,213.10 259.18,214.03 259.75,214.96 260.32,215.89 260.89,216.81 261.46,217.74 262.03,218.67 262.60,219.59 263.17,220.51 263.74,221.42 264.32,222.33 264.89,223.24 265.46,224.13 266.03,225.02 266.60,225.90 267.17,226.77 267.74,227.62 268.31,228.47 268.88,229.30 269.45,230.12 270.02,230.92 270.59,231.71 271.16,232.48 271.73,233.23 272.30,233.97 272.87,234.68 273.44,235.38 274.01,236.06 274.58,236.72 275.15,237.36 275.72,237.98 276.29,238.57 276.86,239.15 277.43,239.70 278.00,240.23 278.57,240.74 279.14,241.23 279.71,241.70 280.28,242.14 280.85,242.57 281.42,242.97 281.99,243.35 282.56,243.71 283.13,244.05 283.70,244.37 284.27,244.68 284.84,244.96 285.41,245.23 285.99,245.48 286.56,245.72 287.13,245.95 287.70,246.16 288.27,246.37 288.84,246.56 289.41,246.75 289.98,246.92 290.55,247.10 291.12,247.27 291.69,247.43 292.26,247.59 292.83,247.75 293.40,247.92 293.97,248.08 294.54,248.24 295.11,248.41 295.68,248.58 296.25,248.75 296.82,248.92 297.39,249.10 297.96,249.28 298.53,249.47 299.10,249.66 299.67,249.85 300.24,250.05 300.81,250.25 301.38,250.46 301.95,250.66 302.52,250.87 303.09,251.08 303.66,251.29 304.23,251.50 304.80,251.71 305.37,251.92 305.94,252.13 306.51,252.33 307.08,252.53 307.66,252.73 308.23,252.92 308.80,253.11 309.37,253.29 309.94,253.47 310.51,253.64 311.08,253.80 311.65,253.95 312.22,254.10 312.79,254.24 313.36,254.37 313.93,254.49 314.50,254.60 315.07,254.70 315.64,254.79 316.21,254.87 316.78,254.95 317.35,255.01 317.92,255.07 318.49,255.12 319.06,255.16 319.63,255.20 320.20,255.22 320.77,255.25 321.34,255.26 321.91,255.27 322.48,255.28 323.05,255.29 323.62,255.29 324.19,255.30 324.76,255.30 325.33,255.30 325.90,255.31 326.47,255.31 327.04,255.32 327.61,255.34 328.18,255.35 328.75,255.37 329.33,255.40 329.90,255.43 " style="stroke-width: 1.07; stroke-linecap: butt;" clip-path="url(#cpMjIuOTJ8MzU0LjUyfDI2OS4yNnwyMy4wMQ==)"></polyline>
<polyline points="38.49,257.03 41.40,256.79 44.32,256.51 47.23,256.18 50.15,255.78 53.06,255.31 55.97,254.76 58.89,254.12 61.80,253.37 64.72,252.50 67.63,251.49 70.55,250.33 73.46,249.01 76.37,247.51 79.29,245.81 82.20,243.89 85.12,241.75 88.03,239.35 90.94,236.68 93.86,233.74 96.77,230.51 99.69,226.98 102.60,223.14 105.51,218.98 108.43,214.51 111.34,209.73 114.26,204.64 117.17,199.26 120.08,193.61 123.00,187.70 125.91,181.56 128.83,175.23 131.74,168.74 134.65,162.15 137.57,155.48 140.48,148.81 143.40,142.17 146.31,135.64 149.22,129.27 152.14,123.13 155.05,117.27 157.97,111.77 160.88,106.67 163.79,102.03 166.71,97.92 169.62,94.37 172.54,91.43 175.45,89.13 178.36,87.50 181.28,86.57 184.19,86.34 187.11,86.81 190.02,87.98 192.94,89.84 195.85,92.36 198.76,95.51 201.68,99.26 204.59,103.56 207.51,108.35 210.42,113.60 213.33,119.23 216.25,125.19 219.16,131.42 222.08,137.85 224.99,144.42 227.90,151.08 230.82,157.75 233.73,164.40 236.65,170.97 239.56,177.40 242.47,183.67 245.39,189.74 248.30,195.56 251.22,201.13 254.13,206.41 257.04,211.39 259.96,216.07 262.87,220.43 265.79,224.48 268.70,228.22 271.61,231.65 274.53,234.78 277.44,237.62 280.36,240.19 283.27,242.50 286.18,244.57 289.10,246.41 292.01,248.04 294.93,249.48 297.84,250.75 300.75,251.85 303.67,252.81 306.58,253.63 309.50,254.35 312.41,254.96 315.33,255.48 318.24,255.92 321.15,256.30 324.07,256.61 326.98,256.88 329.90,257.10 " style="stroke-width: 1.07; stroke: #0000FF; stroke-dasharray: 5.69,5.69; stroke-linecap: butt;" clip-path="url(#cpMjIuOTJ8MzU0LjUyfDI2OS4yNnwyMy4wMQ==)"></polyline>
<defs> <clipPath id="cpMC4wMHwzNjAuMDB8Mjg4LjAwfDAuMDA="> <rect x="0.00" y="0.00" width="360.00" height="288.00"></rect> </clipPath>
</defs>
<g clip-path="url(#cpMC4wMHwzNjAuMDB8Mjg4LjAwfDAuMDA=)"><text x="5.48" y="261.29" style="font-size: 8.80px; fill: #4D4D4D; font-family: Arial;" textLength="12.51px" lengthAdjust="spacingAndGlyphs">0.0</text></g>
<g clip-path="url(#cpMC4wMHwzNjAuMDB8Mjg4LjAwfDAuMDA=)"><text x="5.48" y="218.24" style="font-size: 8.80px; fill: #4D4D4D; font-family: Arial;" textLength="12.51px" lengthAdjust="spacingAndGlyphs">0.1</text></g>
<g clip-path="url(#cpMC4wMHwzNjAuMDB8Mjg4LjAwfDAuMDA=)"><text x="5.48" y="175.19" style="font-size: 8.80px; fill: #4D4D4D; font-family: Arial;" textLength="12.51px" lengthAdjust="spacingAndGlyphs">0.2</text></g>
<g clip-path="url(#cpMC4wMHwzNjAuMDB8Mjg4LjAwfDAuMDA=)"><text x="5.48" y="132.14" style="font-size: 8.80px; fill: #4D4D4D; font-family: Arial;" textLength="12.51px" lengthAdjust="spacingAndGlyphs">0.3</text></g>
<g clip-path="url(#cpMC4wMHwzNjAuMDB8Mjg4LjAwfDAuMDA=)"><text x="5.48" y="89.09" style="font-size: 8.80px; fill: #4D4D4D; font-family: Arial;" textLength="12.51px" lengthAdjust="spacingAndGlyphs">0.4</text></g>
<g clip-path="url(#cpMC4wMHwzNjAuMDB8Mjg4LjAwfDAuMDA=)"><text x="5.48" y="46.04" style="font-size: 8.80px; fill: #4D4D4D; font-family: Arial;" textLength="12.51px" lengthAdjust="spacingAndGlyphs">0.5</text></g>
<polyline points="20.18,258.07 22.92,258.07 " style="stroke-width: 1.07; stroke: #333333; stroke-linecap: butt;" clip-path="url(#cpMC4wMHwzNjAuMDB8Mjg4LjAwfDAuMDA=)"></polyline>
<polyline points="20.18,215.02 22.92,215.02 " style="stroke-width: 1.07; stroke: #333333; stroke-linecap: butt;" clip-path="url(#cpMC4wMHwzNjAuMDB8Mjg4LjAwfDAuMDA=)"></polyline>
<polyline points="20.18,171.97 22.92,171.97 " style="stroke-width: 1.07; stroke: #333333; stroke-linecap: butt;" clip-path="url(#cpMC4wMHwzNjAuMDB8Mjg4LjAwfDAuMDA=)"></polyline>
<polyline points="20.18,128.92 22.92,128.92 " style="stroke-width: 1.07; stroke: #333333; stroke-linecap: butt;" clip-path="url(#cpMC4wMHwzNjAuMDB8Mjg4LjAwfDAuMDA=)"></polyline>
<polyline points="20.18,85.87 22.92,85.87 " style="stroke-width: 1.07; stroke: #333333; stroke-linecap: butt;" clip-path="url(#cpMC4wMHwzNjAuMDB8Mjg4LjAwfDAuMDA=)"></polyline>
<polyline points="20.18,42.82 22.92,42.82 " style="stroke-width: 1.07; stroke: #333333; stroke-linecap: butt;" clip-path="url(#cpMC4wMHwzNjAuMDB8Mjg4LjAwfDAuMDA=)"></polyline>
<polyline points="92.82,272.00 92.82,269.26 " style="stroke-width: 1.07; stroke: #333333; stroke-linecap: butt;" clip-path="url(#cpMC4wMHwzNjAuMDB8Mjg4LjAwfDAuMDA=)"></polyline>
<polyline points="183.70,272.00 183.70,269.26 " style="stroke-width: 1.07; stroke: #333333; stroke-linecap: butt;" clip-path="url(#cpMC4wMHwzNjAuMDB8Mjg4LjAwfDAuMDA=)"></polyline>
<polyline points="274.58,272.00 274.58,269.26 " style="stroke-width: 1.07; stroke: #333333; stroke-linecap: butt;" clip-path="url(#cpMC4wMHwzNjAuMDB8Mjg4LjAwfDAuMDA=)"></polyline>
<g clip-path="url(#cpMC4wMHwzNjAuMDB8Mjg4LjAwfDAuMDA=)"><text x="88.82" y="280.63" style="font-size: 8.80px; fill: #4D4D4D; font-family: Arial;" textLength="8.00px" lengthAdjust="spacingAndGlyphs">-2</text></g>
<g clip-path="url(#cpMC4wMHwzNjAuMDB8Mjg4LjAwfDAuMDA=)"><text x="181.19" y="280.63" style="font-size: 8.80px; fill: #4D4D4D; font-family: Arial;" textLength="5.01px" lengthAdjust="spacingAndGlyphs">0</text></g>
<g clip-path="url(#cpMC4wMHwzNjAuMDB8Mjg4LjAwfDAuMDA=)"><text x="272.07" y="280.63" style="font-size: 8.80px; fill: #4D4D4D; font-family: Arial;" textLength="5.01px" lengthAdjust="spacingAndGlyphs">2</text></g>
<g clip-path="url(#cpMC4wMHwzNjAuMDB8Mjg4LjAwfDAuMDA=)"><text x="22.92" y="14.79" style="font-size: 13.20px; font-family: Arial;" textLength="110.53px" lengthAdjust="spacingAndGlyphs">Normal Distribution</text></g>
</svg>
