<?xml version="1.0"?>

<svg xmlns="http://www.w3.org/2000/svg" xmlns:xlink="http://www.w3.org/1999/xlink" viewBox="0 0 360.00 288.00" width="360.00" height="288.00">
<defs> <style type="text/css"> line, polyline, polygon, path, rect, circle { fill: none; stroke: #000000; stroke-linecap: round; stroke-linejoin: round; stroke-miterlimit: 10.00; } </style>
</defs>
<rect width="100%" height="100%" style="stroke: none; fill: #FFFFFF;"></rect>
<rect x="0.00" y="0.00" width="360.00" height="288.00" style="stroke-width: 1.07; stroke: #FFFFFF; fill: #FFFFFF;"></rect>
<defs> <clipPath id="cpMjcuOTN8MzU0LjUyfDI2OS4yNnwyMy4wMQ=="> <rect x="27.93" y="23.01" width="326.59" height="246.26"></rect> </clipPath>
</defs>
<rect x="27.93" y="23.01" width="326.59" height="246.26" style="stroke-width: 1.07; stroke: none; fill: #EBEBEB;" clip-path="url(#cpMjcuOTN8MzU0LjUyfDI2OS4yNnwyMy4wMQ==)"></rect>
<polyline points="27.93,229.08 354.52,229.08 " style="stroke-width: 0.53; stroke: #FFFFFF; stroke-linecap: butt;" clip-path="url(#cpMjcuOTN8MzU0LjUyfDI2OS4yNnwyMy4wMQ==)"></polyline>
<polyline points="27.93,171.12 354.52,171.12 " style="stroke-width: 0.53; stroke: #FFFFFF; stroke-linecap: butt;" clip-path="url(#cpMjcuOTN8MzU0LjUyfDI2OS4yNnwyMy4wMQ==)"></polyline>
<polyline points="27.93,113.15 354.52,113.15 " style="stroke-width: 0.53; stroke: #FFFFFF; stroke-linecap: butt;" clip-path="url(#cpMjcuOTN8MzU0LjUyfDI2OS4yNnwyMy4wMQ==)"></polyline>
<polyline points="27.93,55.18 354.52,55.18 " style="stroke-width: 0.53; stroke: #FFFFFF; stroke-linecap: butt;" clip-path="url(#cpMjcuOTN8MzU0LjUyfDI2OS4yNnwyMy4wMQ==)"></polyline>
<polyline points="54.21,269.26 54.21,23.01 " style="stroke-width: 0.53; stroke: #FFFFFF; stroke-linecap: butt;" clip-path="url(#cpMjcuOTN8MzU0LjUyfDI2OS4yNnwyMy4wMQ==)"></polyline>
<polyline points="126.57,269.26 126.57,23.01 " style="stroke-width: 0.53; stroke: #FFFFFF; stroke-linecap: butt;" clip-path="url(#cpMjcuOTN8MzU0LjUyfDI2OS4yNnwyMy4wMQ==)"></polyline>
<polyline points="198.93,269.26 198.93,23.01 " style="stroke-width: 0.53; stroke: #FFFFFF; stroke-linecap: butt;" clip-path="url(#cpMjcuOTN8MzU0LjUyfDI2OS4yNnwyMy4wMQ==)"></polyline>
<polyline points="271.28,269.26 271.28,23.01 " style="stroke-width: 0.53; stroke: #FFFFFF; stroke-linecap: butt;" clip-path="url(#cpMjcuOTN8MzU0LjUyfDI2OS4yNnwyMy4wMQ==)"></polyline>
<polyline points="343.64,269.26 343.64,23.01 " style="stroke-width: 0.53; stroke: #FFFFFF; stroke-linecap: butt;" clip-path="url(#cpMjcuOTN8MzU0LjUyfDI2OS4yNnwyMy4wMQ==)"></polyline>
<polyline points="27.93,258.07 354.52,258.07 " style="stroke-width: 1.07; stroke: #FFFFFF; stroke-linecap: butt;" clip-path="url(#cpMjcuOTN8MzU0LjUyfDI2OS4yNnwyMy4wMQ==)"></polyline>
<polyline points="27.93,200.10 354.52,200.10 " style="stroke-width: 1.07; stroke: #FFFFFF; stroke-linecap: butt;" clip-path="url(#cpMjcuOTN8MzU0LjUyfDI2OS4yNnwyMy4wMQ==)"></polyline>
<polyline points="27.93,142.13 354.52,142.13 " style="stroke-width: 1.07; stroke: #FFFFFF; stroke-linecap: butt;" clip-path="url(#cpMjcuOTN8MzU0LjUyfDI2OS4yNnwyMy4wMQ==)"></polyline>
<polyline points="27.93,84.17 354.52,84.17 " style="stroke-width: 1.07; stroke: #FFFFFF; stroke-linecap: butt;" clip-path="url(#cpMjcuOTN8MzU0LjUyfDI2OS4yNnwyMy4wMQ==)"></polyline>
<polyline points="27.93,26.20 354.52,26.20 " style="stroke-width: 1.07; stroke: #FFFFFF; stroke-linecap: butt;" clip-path="url(#cpMjcuOTN8MzU0LjUyfDI2OS4yNnwyMy4wMQ==)"></polyline>
<polyline points="90.39,269.26 90.39,23.01 " style="stroke-width: 1.07; stroke: #FFFFFF; stroke-linecap: butt;" clip-path="url(#cpMjcuOTN8MzU0LjUyfDI2OS4yNnwyMy4wMQ==)"></polyline>
<polyline points="162.75,269.26 162.75,23.01 " style="stroke-width: 1.07; stroke: #FFFFFF; stroke-linecap: butt;" clip-path="url(#cpMjcuOTN8MzU0LjUyfDI2OS4yNnwyMy4wMQ==)"></polyline>
<polyline points="235.10,269.26 235.10,23.01 " style="stroke-width: 1.07; stroke: #FFFFFF; stroke-linecap: butt;" clip-path="url(#cpMjcuOTN8MzU0LjUyfDI2OS4yNnwyMy4wMQ==)"></polyline>
<polyline points="307.46,269.26 307.46,23.01 " style="stroke-width: 1.07; stroke: #FFFFFF; stroke-linecap: butt;" clip-path="url(#cpMjcuOTN8MzU0LjUyfDI2OS4yNnwyMy4wMQ==)"></polyline>
<rect x="42.77" y="243.23" width="9.90" height="14.83" style="stroke-width: 1.07; stroke: #D3D3D3; stroke-linecap: square; stroke-linejoin: miter; fill: #BEBEBE;" clip-path="url(#cpMjcuOTN8MzU0LjUyfDI2OS4yNnwyMy4wMQ==)"></rect>
<rect x="52.67" y="209.33" width="9.90" height="48.74" style="stroke-width: 1.07; stroke: #D3D3D3; stroke-linecap: square; stroke-linejoin: miter; fill: #BEBEBE;" clip-path="url(#cpMjcuOTN8MzU0LjUyfDI2OS4yNnwyMy4wMQ==)"></rect>
<rect x="62.57" y="205.09" width="9.90" height="52.98" style="stroke-width: 1.07; stroke: #D3D3D3; stroke-linecap: square; stroke-linejoin: miter; fill: #BEBEBE;" clip-path="url(#cpMjcuOTN8MzU0LjUyfDI2OS4yNnwyMy4wMQ==)"></rect>
<rect x="72.46" y="139.40" width="9.90" height="118.67" style="stroke-width: 1.07; stroke: #D3D3D3; stroke-linecap: square; stroke-linejoin: miter; fill: #BEBEBE;" clip-path="url(#cpMjcuOTN8MzU0LjUyfDI2OS4yNnwyMy4wMQ==)"></rect>
<rect x="82.36" y="101.26" width="9.90" height="156.81" style="stroke-width: 1.07; stroke: #D3D3D3; stroke-linecap: square; stroke-linejoin: miter; fill: #BEBEBE;" clip-path="url(#cpMjcuOTN8MzU0LjUyfDI2OS4yNnwyMy4wMQ==)"></rect>
<rect x="92.26" y="50.40" width="9.90" height="207.67" style="stroke-width: 1.07; stroke: #D3D3D3; stroke-linecap: square; stroke-linejoin: miter; fill: #BEBEBE;" clip-path="url(#cpMjcuOTN8MzU0LjUyfDI2OS4yNnwyMy4wMQ==)"></rect>
<rect x="102.15" y="56.76" width="9.90" height="201.31" style="stroke-width: 1.07; stroke: #D3D3D3; stroke-linecap: square; stroke-linejoin: miter; fill: #BEBEBE;" clip-path="url(#cpMjcuOTN8MzU0LjUyfDI2OS4yNnwyMy4wMQ==)"></rect>
<rect x="112.05" y="44.04" width="9.90" height="214.02" style="stroke-width: 1.07; stroke: #D3D3D3; stroke-linecap: square; stroke-linejoin: miter; fill: #BEBEBE;" clip-path="url(#cpMjcuOTN8MzU0LjUyfDI2OS4yNnwyMy4wMQ==)"></rect>
<rect x="121.95" y="44.04" width="9.90" height="214.02" style="stroke-width: 1.07; stroke: #D3D3D3; stroke-linecap: square; stroke-linejoin: miter; fill: #BEBEBE;" clip-path="url(#cpMjcuOTN8MzU0LjUyfDI2OS4yNnwyMy4wMQ==)"></rect>
<rect x="131.84" y="67.35" width="9.90" height="190.72" style="stroke-width: 1.07; stroke: #D3D3D3; stroke-linecap: square; stroke-linejoin: miter; fill: #BEBEBE;" clip-path="url(#cpMjcuOTN8MzU0LjUyfDI2OS4yNnwyMy4wMQ==)"></rect>
<rect x="141.74" y="90.66" width="9.90" height="167.41" style="stroke-width: 1.07; stroke: #D3D3D3; stroke-linecap: square; stroke-linejoin: miter; fill: #BEBEBE;" clip-path="url(#cpMjcuOTN8MzU0LjUyfDI2OS4yNnwyMy4wMQ==)"></rect>
<rect x="151.64" y="118.21" width="9.90" height="139.86" style="stroke-width: 1.07; stroke: #D3D3D3; stroke-linecap: square; stroke-linejoin: miter; fill: #BEBEBE;" clip-path="url(#cpMjcuOTN8MzU0LjUyfDI2OS4yNnwyMy4wMQ==)"></rect>
<rect x="161.53" y="156.35" width="9.90" height="101.71" style="stroke-width: 1.07; stroke: #D3D3D3; stroke-linecap: square; stroke-linejoin: miter; fill: #BEBEBE;" clip-path="url(#cpMjcuOTN8MzU0LjUyfDI2OS4yNnwyMy4wMQ==)"></rect>
<rect x="171.43" y="186.02" width="9.90" height="72.05" style="stroke-width: 1.07; stroke: #D3D3D3; stroke-linecap: square; stroke-linejoin: miter; fill: #BEBEBE;" clip-path="url(#cpMjcuOTN8MzU0LjUyfDI2OS4yNnwyMy4wMQ==)"></rect>
<rect x="181.33" y="205.09" width="9.90" height="52.98" style="stroke-width: 1.07; stroke: #D3D3D3; stroke-linecap: square; stroke-linejoin: miter; fill: #BEBEBE;" clip-path="url(#cpMjcuOTN8MzU0LjUyfDI2OS4yNnwyMy4wMQ==)"></rect>
<rect x="191.22" y="198.73" width="9.90" height="59.33" style="stroke-width: 1.07; stroke: #D3D3D3; stroke-linecap: square; stroke-linejoin: miter; fill: #BEBEBE;" clip-path="url(#cpMjcuOTN8MzU0LjUyfDI2OS4yNnwyMy4wMQ==)"></rect>
<rect x="201.12" y="222.04" width="9.90" height="36.02" style="stroke-width: 1.07; stroke: #D3D3D3; stroke-linecap: square; stroke-linejoin: miter; fill: #BEBEBE;" clip-path="url(#cpMjcuOTN8MzU0LjUyfDI2OS4yNnwyMy4wMQ==)"></rect>
<rect x="211.02" y="236.88" width="9.90" height="21.19" style="stroke-width: 1.07; stroke: #D3D3D3; stroke-linecap: square; stroke-linejoin: miter; fill: #BEBEBE;" clip-path="url(#cpMjcuOTN8MzU0LjUyfDI2OS4yNnwyMy4wMQ==)"></rect>
<rect x="220.91" y="236.88" width="9.90" height="21.19" style="stroke-width: 1.07; stroke: #D3D3D3; stroke-linecap: square; stroke-linejoin: miter; fill: #BEBEBE;" clip-path="url(#cpMjcuOTN8MzU0LjUyfDI2OS4yNnwyMy4wMQ==)"></rect>
<rect x="230.81" y="251.71" width="9.90" height="6.36" style="stroke-width: 1.07; stroke: #D3D3D3; stroke-linecap: square; stroke-linejoin: miter; fill: #BEBEBE;" clip-path="url(#cpMjcuOTN8MzU0LjUyfDI2OS4yNnwyMy4wMQ==)"></rect>
<rect x="240.71" y="247.47" width="9.90" height="10.60" style="stroke-width: 1.07; stroke: #D3D3D3; stroke-linecap: square; stroke-linejoin: miter; fill: #BEBEBE;" clip-path="url(#cpMjcuOTN8MzU0LjUyfDI2OS4yNnwyMy4wMQ==)"></rect>
<rect x="250.60" y="253.83" width="9.90" height="4.24" style="stroke-width: 1.07; stroke: #D3D3D3; stroke-linecap: square; stroke-linejoin: miter; fill: #BEBEBE;" clip-path="url(#cpMjcuOTN8MzU0LjUyfDI2OS4yNnwyMy4wMQ==)"></rect>
<rect x="260.50" y="255.95" width="9.90" height="2.12" style="stroke-width: 1.07; stroke: #D3D3D3; stroke-linecap: square; stroke-linejoin: miter; fill: #BEBEBE;" clip-path="url(#cpMjcuOTN8MzU0LjUyfDI2OS4yNnwyMy4wMQ==)"></rect>
<rect x="270.40" y="258.07" width="9.90" height="0.00" style="stroke-width: 1.07; stroke: #D3D3D3; stroke-linecap: square; stroke-linejoin: miter; fill: #BEBEBE;" clip-path="url(#cpMjcuOTN8MzU0LjUyfDI2OS4yNnwyMy4wMQ==)"></rect>
<rect x="280.29" y="258.07" width="9.90" height="0.00" style="stroke-width: 1.07; stroke: #D3D3D3; stroke-linecap: square; stroke-linejoin: miter; fill: #BEBEBE;" clip-path="url(#cpMjcuOTN8MzU0LjUyfDI2OS4yNnwyMy4wMQ==)"></rect>
<rect x="290.19" y="255.95" width="9.90" height="2.12" style="stroke-width: 1.07; stroke: #D3D3D3; stroke-linecap: square; stroke-linejoin: miter; fill: #BEBEBE;" clip-path="url(#cpMjcuOTN8MzU0LjUyfDI2OS4yNnwyMy4wMQ==)"></rect>
<rect x="300.09" y="258.07" width="9.90" height="0.00" style="stroke-width: 1.07; stroke: #D3D3D3; stroke-linecap: square; stroke-linejoin: miter; fill: #BEBEBE;" clip-path="url(#cpMjcuOTN8MzU0LjUyfDI2OS4yNnwyMy4wMQ==)"></rect>
<rect x="309.99" y="258.07" width="9.90" height="0.00" style="stroke-width: 1.07; stroke: #D3D3D3; stroke-linecap: square; stroke-linejoin: miter; fill: #BEBEBE;" clip-path="url(#cpMjcuOTN8MzU0LjUyfDI2OS4yNnwyMy4wMQ==)"></rect>
<rect x="319.88" y="258.07" width="9.90" height="0.00" style="stroke-width: 1.07; stroke: #D3D3D3; stroke-linecap: square; stroke-linejoin: miter; fill: #BEBEBE;" clip-path="url(#cpMjcuOTN8MzU0LjUyfDI2OS4yNnwyMy4wMQ==)"></rect>
<rect x="329.78" y="255.95" width="9.90" height="2.12" style="stroke-width: 1.07; stroke: #D3D3D3; stroke-linecap: square; stroke-linejoin: miter; fill: #BEBEBE;" clip-path="url(#cpMjcuOTN8MzU0LjUyfDI2OS4yNnwyMy4wMQ==)"></rect>
<polyline points="46.41,241.11 46.97,240.04 47.53,238.94 48.09,237.82 48.65,236.68 49.21,235.51 49.78,234.32 50.34,233.11 50.90,231.88 51.46,230.64 52.02,229.38 52.58,228.11 53.15,226.82 53.71,225.52 54.27,224.21 54.83,222.88 55.39,221.54 55.95,220.19 56.52,218.82 57.08,217.44 57.64,216.04 58.20,214.62 58.76,213.18 59.32,211.72 59.89,210.24 60.45,208.73 61.01,207.18 61.57,205.60 62.13,203.99 62.69,202.35 63.26,200.66 63.82,198.93 64.38,197.16 64.94,195.35 65.50,193.49 66.06,191.59 66.63,189.64 67.19,187.63 67.75,185.59 68.31,183.50 68.87,181.38 69.43,179.20 70.00,176.99 70.56,174.73 71.12,172.45 71.68,170.14 72.24,167.79 72.80,165.42 73.37,163.03 73.93,160.62 74.49,158.19 75.05,155.75 75.61,153.30 76.17,150.85 76.74,148.39 77.30,145.93 77.86,143.47 78.42,141.02 78.98,138.57 79.54,136.12 80.11,133.68 80.67,131.25 81.23,128.82 81.79,126.41 82.35,124.00 82.91,121.60 83.48,119.21 84.04,116.83 84.60,114.46 85.16,112.10 85.72,109.76 86.28,107.42 86.85,105.11 87.41,102.80 87.97,100.52 88.53,98.25 89.09,96.00 89.65,93.78 90.22,91.59 90.78,89.42 91.34,87.28 91.90,85.18 92.46,83.12 93.02,81.10 93.59,79.11 94.15,77.17 94.71,75.28 95.27,73.45 95.83,71.66 96.39,69.93 96.96,68.24 97.52,66.62 98.08,65.06 98.64,63.55 99.20,62.10 99.76,60.71 100.33,59.38 100.89,58.12 101.45,56.91 102.01,55.75 102.57,54.65 103.13,53.62 103.70,52.65 104.26,51.72 104.82,50.86 105.38,50.04 105.94,49.29 106.50,48.59 107.07,47.95 107.63,47.35 108.19,46.81 108.75,46.32 109.31,45.90 109.87,45.52 110.44,45.19 111.00,44.91 111.56,44.69 112.12,44.53 112.68,44.41 113.24,44.34 113.80,44.31 114.37,44.35 114.93,44.43 115.49,44.55 116.05,44.72 116.61,44.93 117.17,45.19 117.74,45.50 118.30,45.84 118.86,46.22 119.42,46.63 119.98,47.08 120.54,47.57 121.11,48.09 121.67,48.63 122.23,49.21 122.79,49.81 123.35,50.44 123.91,51.09 124.48,51.76 125.04,52.46 125.60,53.17 126.16,53.91 126.72,54.66 127.28,55.42 127.85,56.20 128.41,57.00 128.97,57.82 129.53,58.64 130.09,59.48 130.65,60.33 131.22,61.19 131.78,62.07 132.34,62.96 132.90,63.85 133.46,64.77 134.02,65.69 134.59,66.63 135.15,67.58 135.71,68.54 136.27,69.52 136.83,70.51 137.39,71.52 137.96,72.55 138.52,73.59 139.08,74.64 139.64,75.72 140.20,76.81 140.76,77.92 141.33,79.05 141.89,80.20 142.45,81.38 143.01,82.57 143.57,83.78 144.13,85.02 144.70,86.28 145.26,87.56 145.82,88.87 146.38,90.20 146.94,91.56 147.50,92.94 148.07,94.35 148.63,95.79 149.19,97.26 149.75,98.76 150.31,100.28 150.87,101.84 151.44,103.43 152.00,105.06 152.56,106.71 153.12,108.39 153.68,110.11 154.24,111.87 154.81,113.66 155.37,115.47 155.93,117.32 156.49,119.20 157.05,121.11 157.61,123.05 158.18,125.01 158.74,126.99 159.30,129.00 159.86,131.02 160.42,133.06 160.98,135.11 161.55,137.16 162.11,139.23 162.67,141.29 163.23,143.35 163.79,145.41 164.35,147.46 164.92,149.49 165.48,151.50 166.04,153.49 166.60,155.46 167.16,157.40 167.72,159.31 168.29,161.18 168.85,163.01 169.41,164.81 169.97,166.56 170.53,168.26 171.09,169.91 171.66,171.52 172.22,173.07 172.78,174.58 173.34,176.03 173.90,177.42 174.46,178.76 175.03,180.05 175.59,181.29 176.15,182.46 176.71,183.58 177.27,184.66 177.83,185.68 178.40,186.65 178.96,187.57 179.52,188.44 180.08,189.27 180.64,190.06 181.20,190.81 181.77,191.51 182.33,192.17 182.89,192.81 183.45,193.41 184.01,193.99 184.57,194.54 185.14,195.06 185.70,195.56 186.26,196.06 186.82,196.53 187.38,197.00 187.94,197.46 188.51,197.92 189.07,198.38 189.63,198.84 190.19,199.31 190.75,199.79 191.31,200.29 191.88,200.79 192.44,201.31 193.00,201.86 193.56,202.43 194.12,203.02 194.68,203.63 195.25,204.27 195.81,204.93 196.37,205.63 196.93,206.35 197.49,207.09 198.05,207.85 198.61,208.65 199.18,209.46 199.74,210.30 200.30,211.15 200.86,212.02 201.42,212.90 201.98,213.80 202.55,214.70 203.11,215.61 203.67,216.52 204.23,217.43 204.79,218.34 205.35,219.24 205.92,220.13 206.48,221.01 207.04,221.87 207.60,222.72 208.16,223.55 208.72,224.36 209.29,225.16 209.85,225.92 210.41,226.66 210.97,227.38 211.53,228.08 212.09,228.75 212.66,229.39 213.22,230.01 213.78,230.61 214.34,231.18 214.90,231.74 215.46,232.27 216.03,232.78 216.59,233.27 217.15,233.75 217.71,234.22 218.27,234.67 218.83,235.11 219.40,235.54 219.96,235.96 220.52,236.37 221.08,236.78 221.64,237.18 222.20,237.58 222.77,237.97 223.33,238.36 223.89,238.76 224.45,239.15 225.01,239.54 225.57,239.93 226.14,240.31 226.70,240.70 227.26,241.09 227.82,241.47 228.38,241.86 228.94,242.24 229.51,242.62 230.07,242.99 230.63,243.36 231.19,243.73 231.75,244.10 232.31,244.45 232.88,244.80 233.44,245.15 234.00,245.49 234.56,245.82 235.12,246.14 235.68,246.46 236.25,246.77 236.81,247.07 237.37,247.37 237.93,247.65 238.49,247.93 239.05,248.21 239.62,248.48 240.18,248.74 240.74,248.99 241.30,249.24 241.86,249.48 242.42,249.72 242.99,249.95 243.55,250.17 244.11,250.39 244.67,250.60 245.23,250.81 245.79,251.01 246.36,251.20 246.92,251.39 247.48,251.57 248.04,251.74 248.60,251.91 249.16,252.07 249.73,252.22 250.29,252.37 250.85,252.51 251.41,252.65 251.97,252.77 252.53,252.90 253.10,253.01 253.66,253.13 254.22,253.23 254.78,253.34 255.34,253.44 255.90,253.54 256.47,253.64 257.03,253.73 257.59,253.83 258.15,253.92 258.71,254.02 259.27,254.12 259.84,254.22 260.40,254.32 260.96,254.42 261.52,254.53 262.08,254.64 262.64,254.76 263.21,254.87 263.77,254.99 264.33,255.11 264.89,255.24 265.45,255.36 266.01,255.49 266.58,255.62 267.14,255.74 267.70,255.87 268.26,256.00 268.82,256.12 269.38,256.25 269.95,256.37 270.51,256.48 271.07,256.60 271.63,256.71 272.19,256.81 272.75,256.91 273.32,257.00 273.88,257.09 274.44,257.17 275.00,257.25 275.56,257.32 276.12,257.38 276.69,257.44 277.25,257.49 277.81,257.54 278.37,257.58 278.93,257.61 279.49,257.64 280.06,257.66 280.62,257.67 281.18,257.68 281.74,257.69 282.30,257.69 282.86,257.69 283.42,257.68 283.99,257.67 284.55,257.65 285.11,257.63 285.67,257.61 286.23,257.59 286.79,257.56 287.36,257.53 287.92,257.50 288.48,257.47 289.04,257.44 289.60,257.41 290.16,257.38 290.73,257.35 291.29,257.32 291.85,257.29 292.41,257.26 292.97,257.24 293.53,257.21 294.10,257.19 294.66,257.17 295.22,257.16 295.78,257.15 296.34,257.14 296.90,257.13 297.47,257.13 298.03,257.14 298.59,257.14 299.15,257.15 299.71,257.16 300.27,257.18 300.84,257.20 301.40,257.22 301.96,257.25 302.52,257.27 303.08,257.30 303.64,257.33 304.21,257.37 304.77,257.40 305.33,257.43 305.89,257.47 306.45,257.50 307.01,257.53 307.58,257.56 308.14,257.60 308.70,257.63 309.26,257.65 309.82,257.68 310.38,257.71 310.95,257.73 311.51,257.75 312.07,257.77 312.63,257.78 313.19,257.80 313.75,257.81 314.32,257.81 314.88,257.82 315.44,257.82 316.00,257.82 316.56,257.81 317.12,257.80 317.69,257.79 318.25,257.78 318.81,257.77 319.37,257.75 319.93,257.73 320.49,257.70 321.06,257.68 321.62,257.65 322.18,257.62 322.74,257.59 323.30,257.56 323.86,257.53 324.43,257.49 324.99,257.46 325.55,257.43 326.11,257.39 326.67,257.36 327.23,257.33 327.80,257.30 328.36,257.27 328.92,257.24 329.48,257.22 330.04,257.20 330.60,257.18 331.17,257.16 331.73,257.15 332.29,257.14 332.85,257.14 333.41,257.13 " style="stroke-width: 1.07; stroke-linecap: butt;" clip-path="url(#cpMjcuOTN8MzU0LjUyfDI2OS4yNnwyMy4wMQ==)"></polyline>
<polyline points="46.41,249.39 49.28,244.76 52.15,238.75 55.02,231.28 57.89,222.36 60.76,212.05 63.63,200.48 66.50,187.84 69.37,174.36 72.24,160.30 75.11,145.94 77.98,131.57 80.85,117.47 83.72,103.91 86.59,91.13 89.46,79.34 92.33,68.71 95.20,59.39 98.07,51.48 100.94,45.05 103.81,40.12 106.68,36.69 109.55,34.73 112.42,34.20 115.29,35.01 118.16,37.07 121.03,40.28 123.90,44.52 126.77,49.68 129.64,55.63 132.51,62.26 135.38,69.44 138.25,77.07 141.12,85.03 143.99,93.22 146.86,101.55 149.73,109.94 152.60,118.32 155.47,126.61 158.34,134.76 161.21,142.71 164.08,150.44 166.95,157.90 169.82,165.06 172.69,171.92 175.56,178.45 178.43,184.64 181.30,190.49 184.17,196.00 187.04,201.17 189.91,206.01 192.78,210.52 195.65,214.72 198.52,218.62 201.39,222.22 204.26,225.54 207.13,228.61 210.00,231.42 212.87,234.00 215.74,236.36 218.61,238.52 221.48,240.49 224.35,242.27 227.22,243.90 230.09,245.37 232.96,246.70 235.83,247.91 238.70,249.00 241.57,249.98 244.44,250.86 247.31,251.65 250.18,252.36 253.05,253.00 255.92,253.57 258.79,254.08 261.66,254.54 264.53,254.94 267.40,255.30 270.27,255.63 273.14,255.91 276.01,256.17 278.88,256.39 281.75,256.59 284.62,256.77 287.49,256.93 290.36,257.07 293.23,257.19 296.10,257.30 298.97,257.39 301.84,257.47 304.71,257.55 307.58,257.61 310.45,257.67 313.32,257.72 316.19,257.76 319.06,257.80 321.93,257.84 324.80,257.87 327.67,257.89 330.54,257.91 333.41,257.93 " style="stroke-width: 1.07; stroke: #0000FF; stroke-dasharray: 5.69,5.69; stroke-linecap: butt;" clip-path="url(#cpMjcuOTN8MzU0LjUyfDI2OS4yNnwyMy4wMQ==)"></polyline>
<defs> <clipPath id="cpMC4wMHwzNjAuMDB8Mjg4LjAwfDAuMDA="> <rect x="0.00" y="0.00" width="360.00" height="288.00"></rect> </clipPath>
</defs>
<g clip-path="url(#cpMC4wMHwzNjAuMDB8Mjg4LjAwfDAuMDA=)"><text x="5.48" y="261.29" style="font-size: 8.80px; fill: #4D4D4D; font-family: Arial;" textLength="17.52px" lengthAdjust="spacingAndGlyphs">0.00</text></g>
<g clip-path="url(#cpMC4wMHwzNjAuMDB8Mjg4LjAwfDAuMDA=)"><text x="5.48" y="203.32" style="font-size: 8.80px; fill: #4D4D4D; font-family: Arial;" textLength="17.52px" lengthAdjust="spacingAndGlyphs">0.02</text></g>
<g clip-path="url(#cpMC4wMHwzNjAuMDB8Mjg4LjAwfDAuMDA=)"><text x="5.48" y="145.35" style="font-size: 8.80px; fill: #4D4D4D; font-family: Arial;" textLength="17.52px" lengthAdjust="spacingAndGlyphs">0.04</text></g>
<g clip-path="url(#cpMC4wMHwzNjAuMDB8Mjg4LjAwfDAuMDA=)"><text x="5.48" y="87.39" style="font-size: 8.80px; fill: #4D4D4D; font-family: Arial;" textLength="17.52px" lengthAdjust="spacingAndGlyphs">0.06</text></g>
<g clip-path="url(#cpMC4wMHwzNjAuMDB8Mjg4LjAwfDAuMDA=)"><text x="5.48" y="29.42" style="font-size: 8.80px; fill: #4D4D4D; font-family: Arial;" textLength="17.52px" lengthAdjust="spacingAndGlyphs">0.08</text></g>
<polyline points="25.19,258.07 27.93,258.07 " style="stroke-width: 1.07; stroke: #333333; stroke-linecap: butt;" clip-path="url(#cpMC4wMHwzNjAuMDB8Mjg4LjAwfDAuMDA=)"></polyline>
<polyline points="25.19,200.10 27.93,200.10 " style="stroke-width: 1.07; stroke: #333333; stroke-linecap: butt;" clip-path="url(#cpMC4wMHwzNjAuMDB8Mjg4LjAwfDAuMDA=)"></polyline>
<polyline points="25.19,142.13 27.93,142.13 " style="stroke-width: 1.07; stroke: #333333; stroke-linecap: butt;" clip-path="url(#cpMC4wMHwzNjAuMDB8Mjg4LjAwfDAuMDA=)"></polyline>
<polyline points="25.19,84.17 27.93,84.17 " style="stroke-width: 1.07; stroke: #333333; stroke-linecap: butt;" clip-path="url(#cpMC4wMHwzNjAuMDB8Mjg4LjAwfDAuMDA=)"></polyline>
<polyline points="25.19,26.20 27.93,26.20 " style="stroke-width: 1.07; stroke: #333333; stroke-linecap: butt;" clip-path="url(#cpMC4wMHwzNjAuMDB8Mjg4LjAwfDAuMDA=)"></polyline>
<polyline points="90.39,272.00 90.39,269.26 " style="stroke-width: 1.07; stroke: #333333; stroke-linecap: butt;" clip-path="url(#cpMC4wMHwzNjAuMDB8Mjg4LjAwfDAuMDA=)"></polyline>
<polyline points="162.75,272.00 162.75,269.26 " style="stroke-width: 1.07; stroke: #333333; stroke-linecap: butt;" clip-path="url(#cpMC4wMHwzNjAuMDB8Mjg4LjAwfDAuMDA=)"></polyline>
<polyline points="235.10,272.00 235.10,269.26 " style="stroke-width: 1.07; stroke: #333333; stroke-linecap: butt;" clip-path="url(#cpMC4wMHwzNjAuMDB8Mjg4LjAwfDAuMDA=)"></polyline>
<polyline points="307.46,272.00 307.46,269.26 " style="stroke-width: 1.07; stroke: #333333; stroke-linecap: butt;" clip-path="url(#cpMC4wMHwzNjAuMDB8Mjg4LjAwfDAuMDA=)"></polyline>
<g clip-path="url(#cpMC4wMHwzNjAuMDB8Mjg4LjAwfDAuMDA=)"><text x="85.38" y="280.63" style="font-size: 8.80px; fill: #4D4D4D; font-family: Arial;" textLength="10.01px" lengthAdjust="spacingAndGlyphs">10</text></g>
<g clip-path="url(#cpMC4wMHwzNjAuMDB8Mjg4LjAwfDAuMDA=)"><text x="157.74" y="280.63" style="font-size: 8.80px; fill: #4D4D4D; font-family: Arial;" textLength="10.01px" lengthAdjust="spacingAndGlyphs">20</text></g>
<g clip-path="url(#cpMC4wMHwzNjAuMDB8Mjg4LjAwfDAuMDA=)"><text x="230.10" y="280.63" style="font-size: 8.80px; fill: #4D4D4D; font-family: Arial;" textLength="10.01px" lengthAdjust="spacingAndGlyphs">30</text></g>
<g clip-path="url(#cpMC4wMHwzNjAuMDB8Mjg4LjAwfDAuMDA=)"><text x="302.46" y="280.63" style="font-size: 8.80px; fill: #4D4D4D; font-family: Arial;" textLength="10.01px" lengthAdjust="spacingAndGlyphs">40</text></g>
<g clip-path="url(#cpMC4wMHwzNjAuMDB8Mjg4LjAwfDAuMDA=)"><text x="27.93" y="14.79" style="font-size: 13.20px; font-family: Arial;" textLength="108.37px" lengthAdjust="spacingAndGlyphs">Chi-Sq Distribution</text></g>
</svg>
