<?xml version="1.0" encoding="utf-8"?>
<!-- Generator: Adobe Illustrator 16.0.0, SVG Export Plug-In . SVG Version: 6.00 Build 0)  -->
<!DOCTYPE svg PUBLIC "-//W3C//DTD SVG 1.1//EN" "http://www.w3.org/Graphics/SVG/1.1/DTD/svg11.dtd">
<svg version="1.1" id="Header_1_" xmlns="http://www.w3.org/2000/svg" xmlns:xlink="http://www.w3.org/1999/xlink" x="0px" y="0px"
	 width="251px" height="35px" viewBox="0 0 251 35" enable-background="new 0 0 251 35" xml:space="preserve">
<g id="logo_1_">
	<g id="R__x09__x09_PSYCHOLOGIST">
		<g enable-background="new    ">
			<path fill="#272626" d="M1.4,9.3h5c1.7,0,2.5,0.2,3.2,0.5c1.6,0.7,2.5,2.3,2.5,4.3c0,2.3-1.3,4-3.2,4.6v0c0,0,0.2,0.2,0.4,0.7
				l3.7,6.8h-1.9l-3.8-7.1H3.1v7.1H1.4V9.3z M7.1,17.6c2,0,3.3-1.3,3.3-3.4c0-1.4-0.6-2.4-1.5-3c-0.5-0.3-1.1-0.4-2.4-0.4H3.1v6.8
				H7.1z"/>
		</g>
		<g enable-background="new    ">
		</g>
		<g enable-background="new    ">
		</g>
		<g enable-background="new    ">
			<path fill="#272626" d="M73.4,9.3h5.8c3,0,5.2,2,5.2,5.1c0,3.1-2.2,5.2-5.2,5.2h-4.2v6.6h-1.7V9.3z M79,18.1
				c2.3,0,3.7-1.4,3.7-3.7c0-2.3-1.5-3.6-3.7-3.6h-4v7.3H79z"/>
			<path fill="#272626" d="M87.5,23c0,0,1.8,1.8,4.4,1.8c1.8,0,3.4-1.1,3.4-2.9c0-4.2-8.4-3.2-8.4-8.4c0-2.4,2.1-4.5,5.3-4.5
				c2.9,0,4.5,1.6,4.5,1.6L95.8,12c0,0-1.5-1.4-3.7-1.4c-2.2,0-3.6,1.4-3.6,2.9c0,4,8.4,2.9,8.4,8.4c0,2.5-1.9,4.6-5.1,4.6
				c-3.5,0-5.4-2.2-5.4-2.2L87.5,23z"/>
			<path fill="#272626" d="M104.3,18.9l-5.7-9.6h1.9l3.6,6.1c0.5,0.9,1,2,1,2h0c0,0,0.5-1.1,1-2l3.6-6.1h1.9l-5.7,9.6v7.2h-1.7V18.9
				z"/>
			<path fill="#272626" d="M121.3,9c4,0,6.1,2.2,6.1,2.2l-0.9,1.2c0,0-2-1.9-5.1-1.9c-4,0-6.8,3.1-6.8,7.1c0,4,2.8,7.3,6.8,7.3
				c3.4,0,5.5-2.3,5.5-2.3l1,1.2c0,0-2.3,2.6-6.5,2.6c-5,0-8.5-3.9-8.5-8.8C112.9,12.7,116.5,9,121.3,9z"/>
			<path fill="#272626" d="M131.5,9.3h1.7V17h9.8V9.3h1.7v16.9h-1.7v-7.7h-9.8v7.7h-1.7V9.3z"/>
			<path fill="#272626" d="M156.9,9c4.8,0,8.6,3.8,8.6,8.6c0,4.9-3.8,8.8-8.6,8.8s-8.6-3.9-8.6-8.8C148.3,12.8,152.1,9,156.9,9z
				 M156.9,24.9c3.8,0,6.9-3.2,6.9-7.3c0-4-3.1-7.1-6.9-7.1c-3.8,0-6.9,3-6.9,7.1C150.1,21.8,153.1,24.9,156.9,24.9z"/>
			<path fill="#272626" d="M169.3,9.3h1.7v15.4h7.8v1.5h-9.5V9.3z"/>
			<path fill="#272626" d="M188.4,9c4.8,0,8.6,3.8,8.6,8.6c0,4.9-3.8,8.8-8.6,8.8s-8.6-3.9-8.6-8.8C179.8,12.8,183.7,9,188.4,9z
				 M188.4,24.9c3.8,0,6.9-3.2,6.9-7.3c0-4-3.1-7.1-6.9-7.1c-3.8,0-6.9,3-6.9,7.1C181.6,21.8,184.6,24.9,188.4,24.9z"/>
			<path fill="#272626" d="M208.1,9c3.9,0,6,2,6,2l-0.9,1.2c0,0-2-1.7-5-1.7c-4.1,0-6.8,3.1-6.8,7.2c0,4.2,2.9,7.2,6.7,7.2
				c3.3,0,5.3-2.5,5.3-2.5v-2.9h-2.9v-1.5h4.5v8.1h-1.5v-1.3c0-0.4,0-0.7,0-0.7h0c0,0-1.9,2.3-5.5,2.3c-4.6,0-8.3-3.7-8.3-8.7
				C199.6,12.9,203.3,9,208.1,9z"/>
			<path fill="#272626" d="M219,9.3h1.7v16.9H219V9.3z"/>
			<path fill="#272626" d="M225.2,23c0,0,1.8,1.8,4.4,1.8c1.8,0,3.4-1.1,3.4-2.9c0-4.2-8.4-3.2-8.4-8.4c0-2.4,2.1-4.5,5.3-4.5
				c2.9,0,4.5,1.6,4.5,1.6l-0.8,1.4c0,0-1.5-1.4-3.7-1.4c-2.2,0-3.6,1.4-3.6,2.9c0,4,8.4,2.9,8.4,8.4c0,2.5-1.9,4.6-5.1,4.6
				c-3.5,0-5.4-2.2-5.4-2.2L225.2,23z"/>
			<path fill="#272626" d="M242.2,10.8h-6.1V9.3h13.8v1.5h-6v15.4h-1.7V10.8z"/>
		</g>
	</g>
	<g id="Ellipse_1">
		<g>
			<circle fill="#272626" cx="41.5" cy="17.5" r="16.5"/>
		</g>
	</g>
	<g id="_x3C_">
	</g>
	<g id="_x2D_">
		<g>
			<g enable-background="new    ">
				<path fill="#FCFCFC" d="M31.6,17.3l9.5-4.8v1.5l-6.5,3.2l6.5,3.3v1.5L31.6,17.3z"/>
			</g>
			<g enable-background="new    ">
				<path fill="#FCFCFC" d="M43.2,18.3v-1.4h6.8v1.4H43.2z"/>
			</g>
		</g>
	</g>
</g>
</svg>
