<?xml version="1.0"?>

<svg xmlns="http://www.w3.org/2000/svg" xmlns:xlink="http://www.w3.org/1999/xlink" viewBox="0 0 360.00 288.00" width="360.00" height="288.00">
<defs> <style type="text/css"> line, polyline, polygon, path, rect, circle { fill: none; stroke: #000000; stroke-linecap: round; stroke-linejoin: round; stroke-miterlimit: 10.00; } </style>
</defs>
<rect width="100%" height="100%" style="stroke: none; fill: #FFFFFF;"></rect>
<rect x="0.00" y="0.00" width="360.00" height="288.00" style="stroke-width: 1.07; stroke: #FFFFFF; fill: #FFFFFF;"></rect>
<defs> <clipPath id="cpMjIuOTJ8MzU0LjUyfDI2OS4yNnwyMy4wMQ=="> <rect x="22.92" y="23.01" width="331.60" height="246.26"></rect> </clipPath>
</defs>
<rect x="22.92" y="23.01" width="331.60" height="246.26" style="stroke-width: 1.07; stroke: none; fill: #EBEBEB;" clip-path="url(#cpMjIuOTJ8MzU0LjUyfDI2OS4yNnwyMy4wMQ==)"></rect>
<polyline points="22.92,219.50 354.52,219.50 " style="stroke-width: 0.53; stroke: #FFFFFF; stroke-linecap: butt;" clip-path="url(#cpMjIuOTJ8MzU0LjUyfDI2OS4yNnwyMy4wMQ==)"></polyline>
<polyline points="22.92,142.37 354.52,142.37 " style="stroke-width: 0.53; stroke: #FFFFFF; stroke-linecap: butt;" clip-path="url(#cpMjIuOTJ8MzU0LjUyfDI2OS4yNnwyMy4wMQ==)"></polyline>
<polyline points="22.92,65.23 354.52,65.23 " style="stroke-width: 0.53; stroke: #FFFFFF; stroke-linecap: butt;" clip-path="url(#cpMjIuOTJ8MzU0LjUyfDI2OS4yNnwyMy4wMQ==)"></polyline>
<polyline points="79.47,269.26 79.47,23.01 " style="stroke-width: 0.53; stroke: #FFFFFF; stroke-linecap: butt;" clip-path="url(#cpMjIuOTJ8MzU0LjUyfDI2OS4yNnwyMy4wMQ==)"></polyline>
<polyline points="152.38,269.26 152.38,23.01 " style="stroke-width: 0.53; stroke: #FFFFFF; stroke-linecap: butt;" clip-path="url(#cpMjIuOTJ8MzU0LjUyfDI2OS4yNnwyMy4wMQ==)"></polyline>
<polyline points="225.29,269.26 225.29,23.01 " style="stroke-width: 0.53; stroke: #FFFFFF; stroke-linecap: butt;" clip-path="url(#cpMjIuOTJ8MzU0LjUyfDI2OS4yNnwyMy4wMQ==)"></polyline>
<polyline points="298.20,269.26 298.20,23.01 " style="stroke-width: 0.53; stroke: #FFFFFF; stroke-linecap: butt;" clip-path="url(#cpMjIuOTJ8MzU0LjUyfDI2OS4yNnwyMy4wMQ==)"></polyline>
<polyline points="22.92,258.07 354.52,258.07 " style="stroke-width: 1.07; stroke: #FFFFFF; stroke-linecap: butt;" clip-path="url(#cpMjIuOTJ8MzU0LjUyfDI2OS4yNnwyMy4wMQ==)"></polyline>
<polyline points="22.92,180.93 354.52,180.93 " style="stroke-width: 1.07; stroke: #FFFFFF; stroke-linecap: butt;" clip-path="url(#cpMjIuOTJ8MzU0LjUyfDI2OS4yNnwyMy4wMQ==)"></polyline>
<polyline points="22.92,103.80 354.52,103.80 " style="stroke-width: 1.07; stroke: #FFFFFF; stroke-linecap: butt;" clip-path="url(#cpMjIuOTJ8MzU0LjUyfDI2OS4yNnwyMy4wMQ==)"></polyline>
<polyline points="22.92,26.66 354.52,26.66 " style="stroke-width: 1.07; stroke: #FFFFFF; stroke-linecap: butt;" clip-path="url(#cpMjIuOTJ8MzU0LjUyfDI2OS4yNnwyMy4wMQ==)"></polyline>
<polyline points="43.02,269.26 43.02,23.01 " style="stroke-width: 1.07; stroke: #FFFFFF; stroke-linecap: butt;" clip-path="url(#cpMjIuOTJ8MzU0LjUyfDI2OS4yNnwyMy4wMQ==)"></polyline>
<polyline points="115.93,269.26 115.93,23.01 " style="stroke-width: 1.07; stroke: #FFFFFF; stroke-linecap: butt;" clip-path="url(#cpMjIuOTJ8MzU0LjUyfDI2OS4yNnwyMy4wMQ==)"></polyline>
<polyline points="188.84,269.26 188.84,23.01 " style="stroke-width: 1.07; stroke: #FFFFFF; stroke-linecap: butt;" clip-path="url(#cpMjIuOTJ8MzU0LjUyfDI2OS4yNnwyMy4wMQ==)"></polyline>
<polyline points="261.75,269.26 261.75,23.01 " style="stroke-width: 1.07; stroke: #FFFFFF; stroke-linecap: butt;" clip-path="url(#cpMjIuOTJ8MzU0LjUyfDI2OS4yNnwyMy4wMQ==)"></polyline>
<polyline points="334.66,269.26 334.66,23.01 " style="stroke-width: 1.07; stroke: #FFFFFF; stroke-linecap: butt;" clip-path="url(#cpMjIuOTJ8MzU0LjUyfDI2OS4yNnwyMy4wMQ==)"></polyline>
<rect x="37.99" y="128.22" width="10.05" height="129.84" style="stroke-width: 1.07; stroke: #D3D3D3; stroke-linecap: square; stroke-linejoin: miter; fill: #BEBEBE;" clip-path="url(#cpMjIuOTJ8MzU0LjUyfDI2OS4yNnwyMy4wMQ==)"></rect>
<rect x="48.04" y="114.79" width="10.05" height="143.28" style="stroke-width: 1.07; stroke: #D3D3D3; stroke-linecap: square; stroke-linejoin: miter; fill: #BEBEBE;" clip-path="url(#cpMjIuOTJ8MzU0LjUyfDI2OS4yNnwyMy4wMQ==)"></rect>
<rect x="58.09" y="96.88" width="10.05" height="161.19" style="stroke-width: 1.07; stroke: #D3D3D3; stroke-linecap: square; stroke-linejoin: miter; fill: #BEBEBE;" clip-path="url(#cpMjIuOTJ8MzU0LjUyfDI2OS4yNnwyMy4wMQ==)"></rect>
<rect x="68.14" y="101.36" width="10.05" height="156.71" style="stroke-width: 1.07; stroke: #D3D3D3; stroke-linecap: square; stroke-linejoin: miter; fill: #BEBEBE;" clip-path="url(#cpMjIuOTJ8MzU0LjUyfDI2OS4yNnwyMy4wMQ==)"></rect>
<rect x="78.19" y="119.27" width="10.05" height="138.80" style="stroke-width: 1.07; stroke: #D3D3D3; stroke-linecap: square; stroke-linejoin: miter; fill: #BEBEBE;" clip-path="url(#cpMjIuOTJ8MzU0LjUyfDI2OS4yNnwyMy4wMQ==)"></rect>
<rect x="88.24" y="123.75" width="10.05" height="134.32" style="stroke-width: 1.07; stroke: #D3D3D3; stroke-linecap: square; stroke-linejoin: miter; fill: #BEBEBE;" clip-path="url(#cpMjIuOTJ8MzU0LjUyfDI2OS4yNnwyMy4wMQ==)"></rect>
<rect x="98.29" y="132.70" width="10.05" height="125.37" style="stroke-width: 1.07; stroke: #D3D3D3; stroke-linecap: square; stroke-linejoin: miter; fill: #BEBEBE;" clip-path="url(#cpMjIuOTJ8MzU0LjUyfDI2OS4yNnwyMy4wMQ==)"></rect>
<rect x="108.33" y="110.31" width="10.05" height="147.75" style="stroke-width: 1.07; stroke: #D3D3D3; stroke-linecap: square; stroke-linejoin: miter; fill: #BEBEBE;" clip-path="url(#cpMjIuOTJ8MzU0LjUyfDI2OS4yNnwyMy4wMQ==)"></rect>
<rect x="118.38" y="78.97" width="10.05" height="179.09" style="stroke-width: 1.07; stroke: #D3D3D3; stroke-linecap: square; stroke-linejoin: miter; fill: #BEBEBE;" clip-path="url(#cpMjIuOTJ8MzU0LjUyfDI2OS4yNnwyMy4wMQ==)"></rect>
<rect x="128.43" y="96.88" width="10.05" height="161.19" style="stroke-width: 1.07; stroke: #D3D3D3; stroke-linecap: square; stroke-linejoin: miter; fill: #BEBEBE;" clip-path="url(#cpMjIuOTJ8MzU0LjUyfDI2OS4yNnwyMy4wMQ==)"></rect>
<rect x="138.48" y="119.27" width="10.05" height="138.80" style="stroke-width: 1.07; stroke: #D3D3D3; stroke-linecap: square; stroke-linejoin: miter; fill: #BEBEBE;" clip-path="url(#cpMjIuOTJ8MzU0LjUyfDI2OS4yNnwyMy4wMQ==)"></rect>
<rect x="148.53" y="128.22" width="10.05" height="129.84" style="stroke-width: 1.07; stroke: #D3D3D3; stroke-linecap: square; stroke-linejoin: miter; fill: #BEBEBE;" clip-path="url(#cpMjIuOTJ8MzU0LjUyfDI2OS4yNnwyMy4wMQ==)"></rect>
<rect x="158.58" y="110.31" width="10.05" height="147.75" style="stroke-width: 1.07; stroke: #D3D3D3; stroke-linecap: square; stroke-linejoin: miter; fill: #BEBEBE;" clip-path="url(#cpMjIuOTJ8MzU0LjUyfDI2OS4yNnwyMy4wMQ==)"></rect>
<rect x="168.62" y="101.36" width="10.05" height="156.71" style="stroke-width: 1.07; stroke: #D3D3D3; stroke-linecap: square; stroke-linejoin: miter; fill: #BEBEBE;" clip-path="url(#cpMjIuOTJ8MzU0LjUyfDI2OS4yNnwyMy4wMQ==)"></rect>
<rect x="178.67" y="74.50" width="10.05" height="183.57" style="stroke-width: 1.07; stroke: #D3D3D3; stroke-linecap: square; stroke-linejoin: miter; fill: #BEBEBE;" clip-path="url(#cpMjIuOTJ8MzU0LjUyfDI2OS4yNnwyMy4wMQ==)"></rect>
<rect x="188.72" y="61.06" width="10.05" height="197.00" style="stroke-width: 1.07; stroke: #D3D3D3; stroke-linecap: square; stroke-linejoin: miter; fill: #BEBEBE;" clip-path="url(#cpMjIuOTJ8MzU0LjUyfDI2OS4yNnwyMy4wMQ==)"></rect>
<rect x="198.77" y="141.66" width="10.05" height="116.41" style="stroke-width: 1.07; stroke: #D3D3D3; stroke-linecap: square; stroke-linejoin: miter; fill: #BEBEBE;" clip-path="url(#cpMjIuOTJ8MzU0LjUyfDI2OS4yNnwyMy4wMQ==)"></rect>
<rect x="208.82" y="74.50" width="10.05" height="183.57" style="stroke-width: 1.07; stroke: #D3D3D3; stroke-linecap: square; stroke-linejoin: miter; fill: #BEBEBE;" clip-path="url(#cpMjIuOTJ8MzU0LjUyfDI2OS4yNnwyMy4wMQ==)"></rect>
<rect x="218.87" y="132.70" width="10.05" height="125.37" style="stroke-width: 1.07; stroke: #D3D3D3; stroke-linecap: square; stroke-linejoin: miter; fill: #BEBEBE;" clip-path="url(#cpMjIuOTJ8MzU0LjUyfDI2OS4yNnwyMy4wMQ==)"></rect>
<rect x="228.92" y="132.70" width="10.05" height="125.37" style="stroke-width: 1.07; stroke: #D3D3D3; stroke-linecap: square; stroke-linejoin: miter; fill: #BEBEBE;" clip-path="url(#cpMjIuOTJ8MzU0LjUyfDI2OS4yNnwyMy4wMQ==)"></rect>
<rect x="238.96" y="83.45" width="10.05" height="174.62" style="stroke-width: 1.07; stroke: #D3D3D3; stroke-linecap: square; stroke-linejoin: miter; fill: #BEBEBE;" clip-path="url(#cpMjIuOTJ8MzU0LjUyfDI2OS4yNnwyMy4wMQ==)"></rect>
<rect x="249.01" y="105.84" width="10.05" height="152.23" style="stroke-width: 1.07; stroke: #D3D3D3; stroke-linecap: square; stroke-linejoin: miter; fill: #BEBEBE;" clip-path="url(#cpMjIuOTJ8MzU0LjUyfDI2OS4yNnwyMy4wMQ==)"></rect>
<rect x="259.06" y="105.84" width="10.05" height="152.23" style="stroke-width: 1.07; stroke: #D3D3D3; stroke-linecap: square; stroke-linejoin: miter; fill: #BEBEBE;" clip-path="url(#cpMjIuOTJ8MzU0LjUyfDI2OS4yNnwyMy4wMQ==)"></rect>
<rect x="269.11" y="101.36" width="10.05" height="156.71" style="stroke-width: 1.07; stroke: #D3D3D3; stroke-linecap: square; stroke-linejoin: miter; fill: #BEBEBE;" clip-path="url(#cpMjIuOTJ8MzU0LjUyfDI2OS4yNnwyMy4wMQ==)"></rect>
<rect x="279.16" y="123.75" width="10.05" height="134.32" style="stroke-width: 1.07; stroke: #D3D3D3; stroke-linecap: square; stroke-linejoin: miter; fill: #BEBEBE;" clip-path="url(#cpMjIuOTJ8MzU0LjUyfDI2OS4yNnwyMy4wMQ==)"></rect>
<rect x="289.21" y="101.36" width="10.05" height="156.71" style="stroke-width: 1.07; stroke: #D3D3D3; stroke-linecap: square; stroke-linejoin: miter; fill: #BEBEBE;" clip-path="url(#cpMjIuOTJ8MzU0LjUyfDI2OS4yNnwyMy4wMQ==)"></rect>
<rect x="299.25" y="123.75" width="10.05" height="134.32" style="stroke-width: 1.07; stroke: #D3D3D3; stroke-linecap: square; stroke-linejoin: miter; fill: #BEBEBE;" clip-path="url(#cpMjIuOTJ8MzU0LjUyfDI2OS4yNnwyMy4wMQ==)"></rect>
<rect x="309.30" y="34.20" width="10.05" height="223.87" style="stroke-width: 1.07; stroke: #D3D3D3; stroke-linecap: square; stroke-linejoin: miter; fill: #BEBEBE;" clip-path="url(#cpMjIuOTJ8MzU0LjUyfDI2OS4yNnwyMy4wMQ==)"></rect>
<rect x="319.35" y="101.36" width="10.05" height="156.71" style="stroke-width: 1.07; stroke: #D3D3D3; stroke-linecap: square; stroke-linejoin: miter; fill: #BEBEBE;" clip-path="url(#cpMjIuOTJ8MzU0LjUyfDI2OS4yNnwyMy4wMQ==)"></rect>
<rect x="329.40" y="204.34" width="10.05" height="53.73" style="stroke-width: 1.07; stroke: #D3D3D3; stroke-linecap: square; stroke-linejoin: miter; fill: #BEBEBE;" clip-path="url(#cpMjIuOTJ8MzU0LjUyfDI2OS4yNnwyMy4wMQ==)"></rect>
<polyline points="43.02,170.71 43.59,168.91 44.16,167.14 44.73,165.37 45.30,163.62 45.87,161.89 46.44,160.18 47.01,158.49 47.58,156.83 48.15,155.19 48.72,153.58 49.29,151.99 49.86,150.43 50.44,148.91 51.01,147.41 51.58,145.94 52.15,144.51 52.72,143.12 53.29,141.75 53.86,140.42 54.43,139.13 55.00,137.86 55.57,136.65 56.14,135.47 56.71,134.32 57.28,133.22 57.85,132.15 58.42,131.11 58.99,130.12 59.56,129.16 60.13,128.24 60.70,127.37 61.27,126.52 61.84,125.71 62.41,124.95 62.98,124.21 63.55,123.51 64.12,122.85 64.69,122.22 65.26,121.62 65.83,121.06 66.40,120.53 66.97,120.03 67.54,119.57 68.11,119.13 68.68,118.72 69.25,118.34 69.82,117.98 70.39,117.66 70.96,117.36 71.53,117.08 72.11,116.83 72.68,116.60 73.25,116.38 73.82,116.20 74.39,116.03 74.96,115.87 75.53,115.74 76.10,115.62 76.67,115.51 77.24,115.43 77.81,115.35 78.38,115.29 78.95,115.23 79.52,115.19 80.09,115.16 80.66,115.13 81.23,115.12 81.80,115.11 82.37,115.10 82.94,115.10 83.51,115.11 84.08,115.11 84.65,115.12 85.22,115.14 85.79,115.15 86.36,115.16 86.93,115.18 87.50,115.19 88.07,115.20 88.64,115.21 89.21,115.21 89.78,115.22 90.35,115.22 90.92,115.21 91.49,115.20 92.06,115.19 92.63,115.17 93.20,115.14 93.78,115.11 94.35,115.07 94.92,115.03 95.49,114.98 96.06,114.92 96.63,114.86 97.20,114.78 97.77,114.71 98.34,114.62 98.91,114.53 99.48,114.43 100.05,114.32 100.62,114.21 101.19,114.09 101.76,113.96 102.33,113.83 102.90,113.69 103.47,113.54 104.04,113.39 104.61,113.23 105.18,113.07 105.75,112.90 106.32,112.73 106.89,112.56 107.46,112.38 108.03,112.19 108.60,112.01 109.17,111.82 109.74,111.63 110.31,111.44 110.88,111.25 111.45,111.06 112.02,110.86 112.59,110.67 113.16,110.48 113.73,110.29 114.30,110.10 114.87,109.92 115.45,109.73 116.02,109.55 116.59,109.37 117.16,109.20 117.73,109.03 118.30,108.87 118.87,108.71 119.44,108.55 120.01,108.41 120.58,108.26 121.15,108.13 121.72,108.00 122.29,107.87 122.86,107.75 123.43,107.65 124.00,107.54 124.57,107.44 125.14,107.36 125.71,107.27 126.28,107.20 126.85,107.13 127.42,107.07 127.99,107.02 128.56,106.97 129.13,106.93 129.70,106.89 130.27,106.86 130.84,106.84 131.41,106.83 131.98,106.81 132.55,106.81 133.12,106.81 133.69,106.81 134.26,106.81 134.83,106.82 135.40,106.84 135.97,106.85 136.54,106.87 137.12,106.89 137.69,106.91 138.26,106.93 138.83,106.95 139.40,106.97 139.97,106.99 140.54,107.01 141.11,107.03 141.68,107.04 142.25,107.05 142.82,107.06 143.39,107.07 143.96,107.07 144.53,107.06 145.10,107.05 145.67,107.04 146.24,107.02 146.81,106.99 147.38,106.96 147.95,106.92 148.52,106.87 149.09,106.82 149.66,106.76 150.23,106.69 150.80,106.61 151.37,106.52 151.94,106.43 152.51,106.33 153.08,106.21 153.65,106.09 154.22,105.97 154.79,105.83 155.36,105.68 155.93,105.53 156.50,105.37 157.07,105.20 157.64,105.02 158.21,104.83 158.79,104.64 159.36,104.44 159.93,104.24 160.50,104.02 161.07,103.80 161.64,103.58 162.21,103.35 162.78,103.12 163.35,102.88 163.92,102.64 164.49,102.39 165.06,102.14 165.63,101.89 166.20,101.64 166.77,101.39 167.34,101.13 167.91,100.88 168.48,100.63 169.05,100.37 169.62,100.12 170.19,99.88 170.76,99.63 171.33,99.39 171.90,99.15 172.47,98.92 173.04,98.69 173.61,98.47 174.18,98.25 174.75,98.05 175.32,97.84 175.89,97.65 176.46,97.46 177.03,97.28 177.60,97.12 178.17,96.96 178.74,96.81 179.31,96.67 179.89,96.54 180.46,96.42 181.03,96.31 181.60,96.21 182.17,96.12 182.74,96.05 183.31,95.99 183.88,95.94 184.45,95.90 185.02,95.87 185.59,95.85 186.16,95.85 186.73,95.85 187.30,95.87 187.87,95.90 188.44,95.94 189.01,95.99 189.58,96.06 190.15,96.13 190.72,96.21 191.29,96.31 191.86,96.41 192.43,96.53 193.00,96.65 193.57,96.78 194.14,96.93 194.71,97.08 195.28,97.23 195.85,97.40 196.42,97.58 196.99,97.75 197.56,97.94 198.13,98.14 198.70,98.33 199.27,98.54 199.84,98.75 200.41,98.96 200.98,99.18 201.56,99.40 202.13,99.63 202.70,99.86 203.27,100.09 203.84,100.32 204.41,100.55 204.98,100.79 205.55,101.02 206.12,101.26 206.69,101.50 207.26,101.74 207.83,101.97 208.40,102.21 208.97,102.44 209.54,102.68 210.11,102.91 210.68,103.14 211.25,103.36 211.82,103.59 212.39,103.81 212.96,104.03 213.53,104.24 214.10,104.45 214.67,104.66 215.24,104.86 215.81,105.06 216.38,105.25 216.95,105.44 217.52,105.62 218.09,105.80 218.66,105.98 219.23,106.14 219.80,106.31 220.37,106.46 220.94,106.61 221.51,106.76 222.08,106.90 222.65,107.03 223.23,107.16 223.80,107.28 224.37,107.39 224.94,107.50 225.51,107.60 226.08,107.70 226.65,107.79 227.22,107.87 227.79,107.95 228.36,108.02 228.93,108.09 229.50,108.15 230.07,108.20 230.64,108.24 231.21,108.29 231.78,108.32 232.35,108.35 232.92,108.38 233.49,108.40 234.06,108.41 234.63,108.42 235.20,108.43 235.77,108.43 236.34,108.42 236.91,108.41 237.48,108.40 238.05,108.39 238.62,108.37 239.19,108.34 239.76,108.32 240.33,108.29 240.90,108.26 241.47,108.23 242.04,108.19 242.61,108.16 243.18,108.12 243.75,108.08 244.32,108.04 244.90,108.00 245.47,107.96 246.04,107.92 246.61,107.88 247.18,107.83 247.75,107.79 248.32,107.75 248.89,107.71 249.46,107.67 250.03,107.63 250.60,107.60 251.17,107.56 251.74,107.53 252.31,107.50 252.88,107.46 253.45,107.44 254.02,107.41 254.59,107.38 255.16,107.36 255.73,107.34 256.30,107.32 256.87,107.30 257.44,107.28 258.01,107.27 258.58,107.26 259.15,107.25 259.72,107.24 260.29,107.23 260.86,107.23 261.43,107.22 262.00,107.22 262.57,107.22 263.14,107.21 263.71,107.21 264.28,107.21 264.85,107.21 265.42,107.21 265.99,107.21 266.57,107.21 267.14,107.21 267.71,107.21 268.28,107.21 268.85,107.21 269.42,107.20 269.99,107.20 270.56,107.19 271.13,107.18 271.70,107.17 272.27,107.16 272.84,107.14 273.41,107.12 273.98,107.10 274.55,107.08 275.12,107.05 275.69,107.02 276.26,106.99 276.83,106.95 277.40,106.91 277.97,106.87 278.54,106.82 279.11,106.77 279.68,106.72 280.25,106.66 280.82,106.60 281.39,106.54 281.96,106.48 282.53,106.41 283.10,106.34 283.67,106.27 284.24,106.20 284.81,106.13 285.38,106.05 285.95,105.98 286.52,105.91 287.09,105.83 287.66,105.76 288.24,105.69 288.81,105.62 289.38,105.56 289.95,105.50 290.52,105.44 291.09,105.39 291.66,105.34 292.23,105.31 292.80,105.27 293.37,105.26 293.94,105.24 294.51,105.24 295.08,105.25 295.65,105.28 296.22,105.31 296.79,105.37 297.36,105.43 297.93,105.52 298.50,105.62 299.07,105.74 299.64,105.89 300.21,106.06 300.78,106.24 301.35,106.46 301.92,106.70 302.49,106.96 303.06,107.25 303.63,107.58 304.20,107.92 304.77,108.31 305.34,108.72 305.91,109.16 306.48,109.65 307.05,110.17 307.62,110.71 308.19,111.31 308.76,111.94 309.33,112.60 309.91,113.31 310.48,114.05 311.05,114.84 311.62,115.67 312.19,116.53 312.76,117.44 313.33,118.40 313.90,119.39 314.47,120.43 315.04,121.51 315.61,122.63 316.18,123.79 316.75,125.00 317.32,126.24 317.89,127.54 318.46,128.87 319.03,130.24 319.60,131.66 320.17,133.11 320.74,134.59 321.31,136.12 321.88,137.69 322.45,139.28 323.02,140.92 323.59,142.58 324.16,144.28 324.73,146.01 325.30,147.77 325.87,149.55 326.44,151.36 327.01,153.19 327.58,155.05 328.15,156.93 328.72,158.82 329.29,160.73 329.86,162.66 330.43,164.60 331.00,166.55 331.58,168.52 332.15,170.49 332.72,172.46 333.29,174.44 333.86,176.42 334.43,178.40 " style="stroke-width: 1.07; stroke-linecap: butt;" clip-path="url(#cpMjIuOTJ8MzU0LjUyfDI2OS4yNnwyMy4wMQ==)"></polyline>
<polyline points="43.02,103.80 45.94,103.80 48.85,103.80 51.76,103.80 54.68,103.80 57.59,103.80 60.51,103.80 63.42,103.80 66.33,103.80 69.25,103.80 72.16,103.80 75.08,103.80 77.99,103.80 80.90,103.80 83.82,103.80 86.73,103.80 89.65,103.80 92.56,103.80 95.47,103.80 98.39,103.80 101.30,103.80 104.22,103.80 107.13,103.80 110.04,103.80 112.96,103.80 115.87,103.80 118.79,103.80 121.70,103.80 124.62,103.80 127.53,103.80 130.44,103.80 133.36,103.80 136.27,103.80 139.19,103.80 142.10,103.80 145.01,103.80 147.93,103.80 150.84,103.80 153.76,103.80 156.67,103.80 159.58,103.80 162.50,103.80 165.41,103.80 168.33,103.80 171.24,103.80 174.15,103.80 177.07,103.80 179.98,103.80 182.90,103.80 185.81,103.80 188.72,103.80 191.64,103.80 194.55,103.80 197.47,103.80 200.38,103.80 203.29,103.80 206.21,103.80 209.12,103.80 212.04,103.80 214.95,103.80 217.86,103.80 220.78,103.80 223.69,103.80 226.61,103.80 229.52,103.80 232.43,103.80 235.35,103.80 238.26,103.80 241.18,103.80 244.09,103.80 247.01,103.80 249.92,103.80 252.83,103.80 255.75,103.80 258.66,103.80 261.58,103.80 264.49,103.80 267.40,103.80 270.32,103.80 273.23,103.80 276.15,103.80 279.06,103.80 281.97,103.80 284.89,103.80 287.80,103.80 290.72,103.80 293.63,103.80 296.54,103.80 299.46,103.80 302.37,103.80 305.29,103.80 308.20,103.80 311.11,103.80 314.03,103.80 316.94,103.80 319.86,103.80 322.77,103.80 325.68,103.80 328.60,103.80 331.51,103.80 334.43,103.80 " style="stroke-width: 1.07; stroke: #0000FF; stroke-dasharray: 5.69,5.69; stroke-linecap: butt;" clip-path="url(#cpMjIuOTJ8MzU0LjUyfDI2OS4yNnwyMy4wMQ==)"></polyline>
<defs> <clipPath id="cpMC4wMHwzNjAuMDB8Mjg4LjAwfDAuMDA="> <rect x="0.00" y="0.00" width="360.00" height="288.00"></rect> </clipPath>
</defs>
<g clip-path="url(#cpMC4wMHwzNjAuMDB8Mjg4LjAwfDAuMDA=)"><text x="5.48" y="261.29" style="font-size: 8.80px; fill: #4D4D4D; font-family: Arial;" textLength="12.51px" lengthAdjust="spacingAndGlyphs">0.0</text></g>
<g clip-path="url(#cpMC4wMHwzNjAuMDB8Mjg4LjAwfDAuMDA=)"><text x="5.48" y="184.15" style="font-size: 8.80px; fill: #4D4D4D; font-family: Arial;" textLength="12.51px" lengthAdjust="spacingAndGlyphs">0.5</text></g>
<g clip-path="url(#cpMC4wMHwzNjAuMDB8Mjg4LjAwfDAuMDA=)"><text x="5.48" y="107.02" style="font-size: 8.80px; fill: #4D4D4D; font-family: Arial;" textLength="12.51px" lengthAdjust="spacingAndGlyphs">1.0</text></g>
<g clip-path="url(#cpMC4wMHwzNjAuMDB8Mjg4LjAwfDAuMDA=)"><text x="5.48" y="29.88" style="font-size: 8.80px; fill: #4D4D4D; font-family: Arial;" textLength="12.51px" lengthAdjust="spacingAndGlyphs">1.5</text></g>
<polyline points="20.18,258.07 22.92,258.07 " style="stroke-width: 1.07; stroke: #333333; stroke-linecap: butt;" clip-path="url(#cpMC4wMHwzNjAuMDB8Mjg4LjAwfDAuMDA=)"></polyline>
<polyline points="20.18,180.93 22.92,180.93 " style="stroke-width: 1.07; stroke: #333333; stroke-linecap: butt;" clip-path="url(#cpMC4wMHwzNjAuMDB8Mjg4LjAwfDAuMDA=)"></polyline>
<polyline points="20.18,103.80 22.92,103.80 " style="stroke-width: 1.07; stroke: #333333; stroke-linecap: butt;" clip-path="url(#cpMC4wMHwzNjAuMDB8Mjg4LjAwfDAuMDA=)"></polyline>
<polyline points="20.18,26.66 22.92,26.66 " style="stroke-width: 1.07; stroke: #333333; stroke-linecap: butt;" clip-path="url(#cpMC4wMHwzNjAuMDB8Mjg4LjAwfDAuMDA=)"></polyline>
<polyline points="43.02,272.00 43.02,269.26 " style="stroke-width: 1.07; stroke: #333333; stroke-linecap: butt;" clip-path="url(#cpMC4wMHwzNjAuMDB8Mjg4LjAwfDAuMDA=)"></polyline>
<polyline points="115.93,272.00 115.93,269.26 " style="stroke-width: 1.07; stroke: #333333; stroke-linecap: butt;" clip-path="url(#cpMC4wMHwzNjAuMDB8Mjg4LjAwfDAuMDA=)"></polyline>
<polyline points="188.84,272.00 188.84,269.26 " style="stroke-width: 1.07; stroke: #333333; stroke-linecap: butt;" clip-path="url(#cpMC4wMHwzNjAuMDB8Mjg4LjAwfDAuMDA=)"></polyline>
<polyline points="261.75,272.00 261.75,269.26 " style="stroke-width: 1.07; stroke: #333333; stroke-linecap: butt;" clip-path="url(#cpMC4wMHwzNjAuMDB8Mjg4LjAwfDAuMDA=)"></polyline>
<polyline points="334.66,272.00 334.66,269.26 " style="stroke-width: 1.07; stroke: #333333; stroke-linecap: butt;" clip-path="url(#cpMC4wMHwzNjAuMDB8Mjg4LjAwfDAuMDA=)"></polyline>
<g clip-path="url(#cpMC4wMHwzNjAuMDB8Mjg4LjAwfDAuMDA=)"><text x="34.26" y="280.63" style="font-size: 8.80px; fill: #4D4D4D; font-family: Arial;" textLength="17.52px" lengthAdjust="spacingAndGlyphs">0.00</text></g>
<g clip-path="url(#cpMC4wMHwzNjAuMDB8Mjg4LjAwfDAuMDA=)"><text x="107.17" y="280.63" style="font-size: 8.80px; fill: #4D4D4D; font-family: Arial;" textLength="17.52px" lengthAdjust="spacingAndGlyphs">0.25</text></g>
<g clip-path="url(#cpMC4wMHwzNjAuMDB8Mjg4LjAwfDAuMDA=)"><text x="180.08" y="280.63" style="font-size: 8.80px; fill: #4D4D4D; font-family: Arial;" textLength="17.52px" lengthAdjust="spacingAndGlyphs">0.50</text></g>
<g clip-path="url(#cpMC4wMHwzNjAuMDB8Mjg4LjAwfDAuMDA=)"><text x="252.99" y="280.63" style="font-size: 8.80px; fill: #4D4D4D; font-family: Arial;" textLength="17.52px" lengthAdjust="spacingAndGlyphs">0.75</text></g>
<g clip-path="url(#cpMC4wMHwzNjAuMDB8Mjg4LjAwfDAuMDA=)"><text x="325.90" y="280.63" style="font-size: 8.80px; fill: #4D4D4D; font-family: Arial;" textLength="17.52px" lengthAdjust="spacingAndGlyphs">1.00</text></g>
<g clip-path="url(#cpMC4wMHwzNjAuMDB8Mjg4LjAwfDAuMDA=)"><text x="22.92" y="14.79" style="font-size: 13.20px; font-family: Arial;" textLength="114.14px" lengthAdjust="spacingAndGlyphs">Uniform Distribution</text></g>
</svg>
