<?xml version="1.0"?>

<svg xmlns="http://www.w3.org/2000/svg" xmlns:xlink="http://www.w3.org/1999/xlink" viewBox="0 0 360.00 288.00" width="360.00" height="288.00">
<defs> <style type="text/css"> line, polyline, polygon, path, rect, circle { fill: none; stroke: #000000; stroke-linecap: round; stroke-linejoin: round; stroke-miterlimit: 10.00; } </style>
</defs>
<rect width="100%" height="100%" style="stroke: none; fill: #FFFFFF;"></rect>
<rect x="0.00" y="0.00" width="360.00" height="288.00" style="stroke-width: 1.07; stroke: #FFFFFF; fill: #FFFFFF;"></rect>
<defs> <clipPath id="cpMjIuOTJ8MzU0LjUyfDI2OS4yNnwyMy4wMQ=="> <rect x="22.92" y="23.01" width="331.60" height="246.26"></rect> </clipPath>
</defs>
<rect x="22.92" y="23.01" width="331.60" height="246.26" style="stroke-width: 1.07; stroke: none; fill: #EBEBEB;" clip-path="url(#cpMjIuOTJ8MzU0LjUyfDI2OS4yNnwyMy4wMQ==)"></rect>
<polyline points="22.92,226.09 354.52,226.09 " style="stroke-width: 0.53; stroke: #FFFFFF; stroke-linecap: butt;" clip-path="url(#cpMjIuOTJ8MzU0LjUyfDI2OS4yNnwyMy4wMQ==)"></polyline>
<polyline points="22.92,162.13 354.52,162.13 " style="stroke-width: 0.53; stroke: #FFFFFF; stroke-linecap: butt;" clip-path="url(#cpMjIuOTJ8MzU0LjUyfDI2OS4yNnwyMy4wMQ==)"></polyline>
<polyline points="22.92,98.17 354.52,98.17 " style="stroke-width: 0.53; stroke: #FFFFFF; stroke-linecap: butt;" clip-path="url(#cpMjIuOTJ8MzU0LjUyfDI2OS4yNnwyMy4wMQ==)"></polyline>
<polyline points="22.92,34.21 354.52,34.21 " style="stroke-width: 0.53; stroke: #FFFFFF; stroke-linecap: butt;" clip-path="url(#cpMjIuOTJ8MzU0LjUyfDI2OS4yNnwyMy4wMQ==)"></polyline>
<polyline points="80.92,269.26 80.92,23.01 " style="stroke-width: 0.53; stroke: #FFFFFF; stroke-linecap: butt;" clip-path="url(#cpMjIuOTJ8MzU0LjUyfDI2OS4yNnwyMy4wMQ==)"></polyline>
<polyline points="156.72,269.26 156.72,23.01 " style="stroke-width: 0.53; stroke: #FFFFFF; stroke-linecap: butt;" clip-path="url(#cpMjIuOTJ8MzU0LjUyfDI2OS4yNnwyMy4wMQ==)"></polyline>
<polyline points="232.52,269.26 232.52,23.01 " style="stroke-width: 0.53; stroke: #FFFFFF; stroke-linecap: butt;" clip-path="url(#cpMjIuOTJ8MzU0LjUyfDI2OS4yNnwyMy4wMQ==)"></polyline>
<polyline points="308.32,269.26 308.32,23.01 " style="stroke-width: 0.53; stroke: #FFFFFF; stroke-linecap: butt;" clip-path="url(#cpMjIuOTJ8MzU0LjUyfDI2OS4yNnwyMy4wMQ==)"></polyline>
<polyline points="22.92,258.07 354.52,258.07 " style="stroke-width: 1.07; stroke: #FFFFFF; stroke-linecap: butt;" clip-path="url(#cpMjIuOTJ8MzU0LjUyfDI2OS4yNnwyMy4wMQ==)"></polyline>
<polyline points="22.92,194.11 354.52,194.11 " style="stroke-width: 1.07; stroke: #FFFFFF; stroke-linecap: butt;" clip-path="url(#cpMjIuOTJ8MzU0LjUyfDI2OS4yNnwyMy4wMQ==)"></polyline>
<polyline points="22.92,130.15 354.52,130.15 " style="stroke-width: 1.07; stroke: #FFFFFF; stroke-linecap: butt;" clip-path="url(#cpMjIuOTJ8MzU0LjUyfDI2OS4yNnwyMy4wMQ==)"></polyline>
<polyline points="22.92,66.19 354.52,66.19 " style="stroke-width: 1.07; stroke: #FFFFFF; stroke-linecap: butt;" clip-path="url(#cpMjIuOTJ8MzU0LjUyfDI2OS4yNnwyMy4wMQ==)"></polyline>
<polyline points="43.02,269.26 43.02,23.01 " style="stroke-width: 1.07; stroke: #FFFFFF; stroke-linecap: butt;" clip-path="url(#cpMjIuOTJ8MzU0LjUyfDI2OS4yNnwyMy4wMQ==)"></polyline>
<polyline points="118.82,269.26 118.82,23.01 " style="stroke-width: 1.07; stroke: #FFFFFF; stroke-linecap: butt;" clip-path="url(#cpMjIuOTJ8MzU0LjUyfDI2OS4yNnwyMy4wMQ==)"></polyline>
<polyline points="194.62,269.26 194.62,23.01 " style="stroke-width: 1.07; stroke: #FFFFFF; stroke-linecap: butt;" clip-path="url(#cpMjIuOTJ8MzU0LjUyfDI2OS4yNnwyMy4wMQ==)"></polyline>
<polyline points="270.42,269.26 270.42,23.01 " style="stroke-width: 1.07; stroke: #FFFFFF; stroke-linecap: butt;" clip-path="url(#cpMjIuOTJ8MzU0LjUyfDI2OS4yNnwyMy4wMQ==)"></polyline>
<polyline points="346.21,269.26 346.21,23.01 " style="stroke-width: 1.07; stroke: #FFFFFF; stroke-linecap: butt;" clip-path="url(#cpMjIuOTJ8MzU0LjUyfDI2OS4yNnwyMy4wMQ==)"></polyline>
<rect x="37.99" y="227.19" width="10.05" height="30.88" style="stroke-width: 1.07; stroke: #D3D3D3; stroke-linecap: square; stroke-linejoin: miter; fill: #BEBEBE;" clip-path="url(#cpMjIuOTJ8MzU0LjUyfDI2OS4yNnwyMy4wMQ==)"></rect>
<rect x="48.04" y="88.24" width="10.05" height="169.83" style="stroke-width: 1.07; stroke: #D3D3D3; stroke-linecap: square; stroke-linejoin: miter; fill: #BEBEBE;" clip-path="url(#cpMjIuOTJ8MzU0LjUyfDI2OS4yNnwyMy4wMQ==)"></rect>
<rect x="58.09" y="41.92" width="10.05" height="216.15" style="stroke-width: 1.07; stroke: #D3D3D3; stroke-linecap: square; stroke-linejoin: miter; fill: #BEBEBE;" clip-path="url(#cpMjIuOTJ8MzU0LjUyfDI2OS4yNnwyMy4wMQ==)"></rect>
<rect x="68.14" y="68.94" width="10.05" height="189.13" style="stroke-width: 1.07; stroke: #D3D3D3; stroke-linecap: square; stroke-linejoin: miter; fill: #BEBEBE;" clip-path="url(#cpMjIuOTJ8MzU0LjUyfDI2OS4yNnwyMy4wMQ==)"></rect>
<rect x="78.19" y="72.80" width="10.05" height="185.27" style="stroke-width: 1.07; stroke: #D3D3D3; stroke-linecap: square; stroke-linejoin: miter; fill: #BEBEBE;" clip-path="url(#cpMjIuOTJ8MzU0LjUyfDI2OS4yNnwyMy4wMQ==)"></rect>
<rect x="88.24" y="34.20" width="10.05" height="223.87" style="stroke-width: 1.07; stroke: #D3D3D3; stroke-linecap: square; stroke-linejoin: miter; fill: #BEBEBE;" clip-path="url(#cpMjIuOTJ8MzU0LjUyfDI2OS4yNnwyMy4wMQ==)"></rect>
<rect x="98.29" y="41.92" width="10.05" height="216.15" style="stroke-width: 1.07; stroke: #D3D3D3; stroke-linecap: square; stroke-linejoin: miter; fill: #BEBEBE;" clip-path="url(#cpMjIuOTJ8MzU0LjUyfDI2OS4yNnwyMy4wMQ==)"></rect>
<rect x="108.33" y="88.24" width="10.05" height="169.83" style="stroke-width: 1.07; stroke: #D3D3D3; stroke-linecap: square; stroke-linejoin: miter; fill: #BEBEBE;" clip-path="url(#cpMjIuOTJ8MzU0LjUyfDI2OS4yNnwyMy4wMQ==)"></rect>
<rect x="118.38" y="61.22" width="10.05" height="196.85" style="stroke-width: 1.07; stroke: #D3D3D3; stroke-linecap: square; stroke-linejoin: miter; fill: #BEBEBE;" clip-path="url(#cpMjIuOTJ8MzU0LjUyfDI2OS4yNnwyMy4wMQ==)"></rect>
<rect x="128.43" y="65.08" width="10.05" height="192.99" style="stroke-width: 1.07; stroke: #D3D3D3; stroke-linecap: square; stroke-linejoin: miter; fill: #BEBEBE;" clip-path="url(#cpMjIuOTJ8MzU0LjUyfDI2OS4yNnwyMy4wMQ==)"></rect>
<rect x="138.48" y="92.10" width="10.05" height="165.97" style="stroke-width: 1.07; stroke: #D3D3D3; stroke-linecap: square; stroke-linejoin: miter; fill: #BEBEBE;" clip-path="url(#cpMjIuOTJ8MzU0LjUyfDI2OS4yNnwyMy4wMQ==)"></rect>
<rect x="148.53" y="61.22" width="10.05" height="196.85" style="stroke-width: 1.07; stroke: #D3D3D3; stroke-linecap: square; stroke-linejoin: miter; fill: #BEBEBE;" clip-path="url(#cpMjIuOTJ8MzU0LjUyfDI2OS4yNnwyMy4wMQ==)"></rect>
<rect x="158.58" y="65.08" width="10.05" height="192.99" style="stroke-width: 1.07; stroke: #D3D3D3; stroke-linecap: square; stroke-linejoin: miter; fill: #BEBEBE;" clip-path="url(#cpMjIuOTJ8MzU0LjUyfDI2OS4yNnwyMy4wMQ==)"></rect>
<rect x="168.62" y="65.08" width="10.05" height="192.99" style="stroke-width: 1.07; stroke: #D3D3D3; stroke-linecap: square; stroke-linejoin: miter; fill: #BEBEBE;" clip-path="url(#cpMjIuOTJ8MzU0LjUyfDI2OS4yNnwyMy4wMQ==)"></rect>
<rect x="178.67" y="57.36" width="10.05" height="200.71" style="stroke-width: 1.07; stroke: #D3D3D3; stroke-linecap: square; stroke-linejoin: miter; fill: #BEBEBE;" clip-path="url(#cpMjIuOTJ8MzU0LjUyfDI2OS4yNnwyMy4wMQ==)"></rect>
<rect x="188.72" y="134.55" width="10.05" height="123.51" style="stroke-width: 1.07; stroke: #D3D3D3; stroke-linecap: square; stroke-linejoin: miter; fill: #BEBEBE;" clip-path="url(#cpMjIuOTJ8MzU0LjUyfDI2OS4yNnwyMy4wMQ==)"></rect>
<rect x="198.77" y="103.68" width="10.05" height="154.39" style="stroke-width: 1.07; stroke: #D3D3D3; stroke-linecap: square; stroke-linejoin: miter; fill: #BEBEBE;" clip-path="url(#cpMjIuOTJ8MzU0LjUyfDI2OS4yNnwyMy4wMQ==)"></rect>
<rect x="208.82" y="88.24" width="10.05" height="169.83" style="stroke-width: 1.07; stroke: #D3D3D3; stroke-linecap: square; stroke-linejoin: miter; fill: #BEBEBE;" clip-path="url(#cpMjIuOTJ8MzU0LjUyfDI2OS4yNnwyMy4wMQ==)"></rect>
<rect x="218.87" y="177.01" width="10.05" height="81.06" style="stroke-width: 1.07; stroke: #D3D3D3; stroke-linecap: square; stroke-linejoin: miter; fill: #BEBEBE;" clip-path="url(#cpMjIuOTJ8MzU0LjUyfDI2OS4yNnwyMy4wMQ==)"></rect>
<rect x="228.92" y="161.57" width="10.05" height="96.49" style="stroke-width: 1.07; stroke: #D3D3D3; stroke-linecap: square; stroke-linejoin: miter; fill: #BEBEBE;" clip-path="url(#cpMjIuOTJ8MzU0LjUyfDI2OS4yNnwyMy4wMQ==)"></rect>
<rect x="238.96" y="153.85" width="10.05" height="104.21" style="stroke-width: 1.07; stroke: #D3D3D3; stroke-linecap: square; stroke-linejoin: miter; fill: #BEBEBE;" clip-path="url(#cpMjIuOTJ8MzU0LjUyfDI2OS4yNnwyMy4wMQ==)"></rect>
<rect x="249.01" y="173.15" width="10.05" height="84.92" style="stroke-width: 1.07; stroke: #D3D3D3; stroke-linecap: square; stroke-linejoin: miter; fill: #BEBEBE;" clip-path="url(#cpMjIuOTJ8MzU0LjUyfDI2OS4yNnwyMy4wMQ==)"></rect>
<rect x="259.06" y="177.01" width="10.05" height="81.06" style="stroke-width: 1.07; stroke: #D3D3D3; stroke-linecap: square; stroke-linejoin: miter; fill: #BEBEBE;" clip-path="url(#cpMjIuOTJ8MzU0LjUyfDI2OS4yNnwyMy4wMQ==)"></rect>
<rect x="269.11" y="192.45" width="10.05" height="65.62" style="stroke-width: 1.07; stroke: #D3D3D3; stroke-linecap: square; stroke-linejoin: miter; fill: #BEBEBE;" clip-path="url(#cpMjIuOTJ8MzU0LjUyfDI2OS4yNnwyMy4wMQ==)"></rect>
<rect x="279.16" y="200.17" width="10.05" height="57.90" style="stroke-width: 1.07; stroke: #D3D3D3; stroke-linecap: square; stroke-linejoin: miter; fill: #BEBEBE;" clip-path="url(#cpMjIuOTJ8MzU0LjUyfDI2OS4yNnwyMy4wMQ==)"></rect>
<rect x="289.21" y="231.05" width="10.05" height="27.02" style="stroke-width: 1.07; stroke: #D3D3D3; stroke-linecap: square; stroke-linejoin: miter; fill: #BEBEBE;" clip-path="url(#cpMjIuOTJ8MzU0LjUyfDI2OS4yNnwyMy4wMQ==)"></rect>
<rect x="299.25" y="223.33" width="10.05" height="34.74" style="stroke-width: 1.07; stroke: #D3D3D3; stroke-linecap: square; stroke-linejoin: miter; fill: #BEBEBE;" clip-path="url(#cpMjIuOTJ8MzU0LjUyfDI2OS4yNnwyMy4wMQ==)"></rect>
<rect x="309.30" y="250.35" width="10.05" height="7.72" style="stroke-width: 1.07; stroke: #D3D3D3; stroke-linecap: square; stroke-linejoin: miter; fill: #BEBEBE;" clip-path="url(#cpMjIuOTJ8MzU0LjUyfDI2OS4yNnwyMy4wMQ==)"></rect>
<rect x="319.35" y="234.91" width="10.05" height="23.16" style="stroke-width: 1.07; stroke: #D3D3D3; stroke-linecap: square; stroke-linejoin: miter; fill: #BEBEBE;" clip-path="url(#cpMjIuOTJ8MzU0LjUyfDI2OS4yNnwyMy4wMQ==)"></rect>
<rect x="329.40" y="250.35" width="10.05" height="7.72" style="stroke-width: 1.07; stroke: #D3D3D3; stroke-linecap: square; stroke-linejoin: miter; fill: #BEBEBE;" clip-path="url(#cpMjIuOTJ8MzU0LjUyfDI2OS4yNnwyMy4wMQ==)"></rect>
<polyline points="43.85,178.88 44.42,176.07 44.99,173.23 45.56,170.38 46.13,167.51 46.70,164.62 47.27,161.73 47.84,158.83 48.41,155.93 48.98,153.03 49.55,150.13 50.12,147.24 50.69,144.38 51.26,141.52 51.83,138.68 52.40,135.87 52.97,133.09 53.54,130.34 54.11,127.62 54.68,124.94 55.26,122.30 55.83,119.69 56.40,117.14 56.97,114.63 57.54,112.17 58.11,109.76 58.68,107.42 59.25,105.12 59.82,102.86 60.39,100.69 60.96,98.57 61.53,96.49 62.10,94.50 62.67,92.56 63.24,90.67 63.81,88.85 64.38,87.10 64.95,85.40 65.52,83.75 66.09,82.19 66.66,80.67 67.23,79.21 67.80,77.80 68.37,76.47 68.94,75.17 69.51,73.93 70.08,72.76 70.65,71.63 71.22,70.54 71.79,69.51 72.36,68.52 72.93,67.57 73.50,66.67 74.07,65.82 74.64,65.00 75.21,64.21 75.78,63.47 76.35,62.76 76.93,62.09 77.50,61.44 78.07,60.83 78.64,60.25 79.21,59.69 79.78,59.17 80.35,58.67 80.92,58.19 81.49,57.74 82.06,57.32 82.63,56.91 83.20,56.53 83.77,56.18 84.34,55.84 84.91,55.53 85.48,55.24 86.05,54.97 86.62,54.72 87.19,54.49 87.76,54.29 88.33,54.11 88.90,53.94 89.47,53.80 90.04,53.69 90.61,53.59 91.18,53.52 91.75,53.47 92.32,53.44 92.89,53.43 93.46,53.45 94.03,53.49 94.60,53.55 95.17,53.64 95.74,53.75 96.31,53.88 96.88,54.03 97.45,54.21 98.02,54.40 98.60,54.62 99.17,54.86 99.74,55.12 100.31,55.39 100.88,55.68 101.45,55.99 102.02,56.32 102.59,56.66 103.16,57.01 103.73,57.38 104.30,57.76 104.87,58.15 105.44,58.55 106.01,58.95 106.58,59.37 107.15,59.79 107.72,60.21 108.29,60.63 108.86,61.06 109.43,61.49 110.00,61.92 110.57,62.34 111.14,62.76 111.71,63.18 112.28,63.59 112.85,64.00 113.42,64.40 113.99,64.79 114.56,65.17 115.13,65.55 115.70,65.91 116.27,66.27 116.84,66.61 117.41,66.94 117.98,67.27 118.55,67.58 119.12,67.88 119.69,68.16 120.27,68.44 120.84,68.70 121.41,68.95 121.98,69.19 122.55,69.42 123.12,69.64 123.69,69.85 124.26,70.04 124.83,70.22 125.40,70.39 125.97,70.56 126.54,70.71 127.11,70.85 127.68,70.98 128.25,71.10 128.82,71.21 129.39,71.31 129.96,71.40 130.53,71.49 131.10,71.56 131.67,71.62 132.24,71.68 132.81,71.72 133.38,71.76 133.95,71.79 134.52,71.80 135.09,71.81 135.66,71.81 136.23,71.80 136.80,71.78 137.37,71.75 137.94,71.71 138.51,71.66 139.08,71.60 139.65,71.53 140.22,71.45 140.79,71.36 141.36,71.26 141.94,71.15 142.51,71.04 143.08,70.91 143.65,70.78 144.22,70.64 144.79,70.49 145.36,70.33 145.93,70.17 146.50,70.00 147.07,69.83 147.64,69.64 148.21,69.46 148.78,69.28 149.35,69.09 149.92,68.90 150.49,68.71 151.06,68.52 151.63,68.33 152.20,68.14 152.77,67.96 153.34,67.79 153.91,67.62 154.48,67.46 155.05,67.30 155.62,67.16 156.19,67.03 156.76,66.91 157.33,66.80 157.90,66.71 158.47,66.63 159.04,66.58 159.61,66.54 160.18,66.51 160.75,66.51 161.32,66.53 161.89,66.57 162.46,66.63 163.03,66.72 163.61,66.82 164.18,66.95 164.75,67.11 165.32,67.29 165.89,67.50 166.46,67.73 167.03,67.99 167.60,68.27 168.17,68.57 168.74,68.91 169.31,69.27 169.88,69.65 170.45,70.06 171.02,70.49 171.59,70.95 172.16,71.42 172.73,71.93 173.30,72.46 173.87,73.00 174.44,73.57 175.01,74.15 175.58,74.76 176.15,75.38 176.72,76.02 177.29,76.67 177.86,77.34 178.43,78.03 179.00,78.73 179.57,79.44 180.14,80.16 180.71,80.90 181.28,81.64 181.85,82.39 182.42,83.14 182.99,83.91 183.56,84.68 184.13,85.45 184.70,86.23 185.28,87.01 185.85,87.80 186.42,88.58 186.99,89.37 187.56,90.15 188.13,90.94 188.70,91.72 189.27,92.51 189.84,93.29 190.41,94.07 190.98,94.84 191.55,95.62 192.12,96.39 192.69,97.16 193.26,97.92 193.83,98.68 194.40,99.44 194.97,100.20 195.54,100.95 196.11,101.70 196.68,102.45 197.25,103.20 197.82,103.94 198.39,104.69 198.96,105.43 199.53,106.17 200.10,106.91 200.67,107.66 201.24,108.40 201.81,109.15 202.38,109.90 202.95,110.65 203.52,111.40 204.09,112.16 204.66,112.92 205.23,113.69 205.80,114.46 206.37,115.24 206.95,116.02 207.52,116.81 208.09,117.60 208.66,118.40 209.23,119.21 209.80,120.03 210.37,120.85 210.94,121.68 211.51,122.52 212.08,123.36 212.65,124.21 213.22,125.06 213.79,125.92 214.36,126.79 214.93,127.66 215.50,128.54 216.07,129.41 216.64,130.30 217.21,131.18 217.78,132.07 218.35,132.96 218.92,133.84 219.49,134.73 220.06,135.62 220.63,136.50 221.20,137.38 221.77,138.25 222.34,139.12 222.91,139.99 223.48,140.84 224.05,141.69 224.62,142.54 225.19,143.37 225.76,144.19 226.33,145.00 226.90,145.80 227.47,146.58 228.04,147.36 228.62,148.12 229.19,148.86 229.76,149.60 230.33,150.32 230.90,151.02 231.47,151.70 232.04,152.38 232.61,153.03 233.18,153.67 233.75,154.30 234.32,154.92 234.89,155.51 235.46,156.09 236.03,156.66 236.60,157.22 237.17,157.76 237.74,158.29 238.31,158.80 238.88,159.30 239.45,159.79 240.02,160.28 240.59,160.75 241.16,161.21 241.73,161.66 242.30,162.11 242.87,162.54 243.44,162.97 244.01,163.40 244.58,163.82 245.15,164.24 245.72,164.65 246.29,165.06 246.86,165.47 247.43,165.88 248.00,166.28 248.57,166.69 249.14,167.10 249.71,167.50 250.29,167.92 250.86,168.33 251.43,168.75 252.00,169.17 252.57,169.59 253.14,170.02 253.71,170.46 254.28,170.90 254.85,171.35 255.42,171.80 255.99,172.26 256.56,172.73 257.13,173.21 257.70,173.69 258.27,174.19 258.84,174.69 259.41,175.20 259.98,175.72 260.55,176.25 261.12,176.79 261.69,177.34 262.26,177.90 262.83,178.47 263.40,179.04 263.97,179.63 264.54,180.23 265.11,180.84 265.68,181.46 266.25,182.09 266.82,182.73 267.39,183.38 267.96,184.04 268.53,184.70 269.10,185.38 269.67,186.07 270.24,186.77 270.81,187.47 271.38,188.19 271.96,188.91 272.53,189.64 273.10,190.38 273.67,191.13 274.24,191.88 274.81,192.64 275.38,193.41 275.95,194.19 276.52,194.96 277.09,195.75 277.66,196.54 278.23,197.33 278.80,198.13 279.37,198.93 279.94,199.73 280.51,200.54 281.08,201.35 281.65,202.15 282.22,202.96 282.79,203.77 283.36,204.58 283.93,205.39 284.50,206.20 285.07,207.00 285.64,207.81 286.21,208.61 286.78,209.40 287.35,210.20 287.92,210.99 288.49,211.77 289.06,212.55 289.63,213.32 290.20,214.09 290.77,214.85 291.34,215.60 291.91,216.35 292.48,217.09 293.05,217.82 293.63,218.55 294.20,219.26 294.77,219.97 295.34,220.66 295.91,221.35 296.48,222.03 297.05,222.70 297.62,223.36 298.19,224.00 298.76,224.64 299.33,225.27 299.90,225.89 300.47,226.49 301.04,227.09 301.61,227.67 302.18,228.25 302.75,228.81 303.32,229.36 303.89,229.91 304.46,230.43 305.03,230.95 305.60,231.47 306.17,231.96 306.74,232.45 307.31,232.93 307.88,233.40 308.45,233.86 309.02,234.31 309.59,234.75 310.16,235.17 310.73,235.59 311.30,236.01 311.87,236.41 312.44,236.81 313.01,237.19 313.58,237.57 314.15,237.94 314.72,238.31 315.30,238.67 315.87,239.02 316.44,239.36 317.01,239.71 317.58,240.04 318.15,240.37 318.72,240.70 319.29,241.02 319.86,241.33 320.43,241.65 321.00,241.96 321.57,242.27 322.14,242.57 322.71,242.87 323.28,243.17 323.85,243.47 324.42,243.77 324.99,244.06 325.56,244.35 326.13,244.65 326.70,244.94 327.27,245.23 327.84,245.52 328.41,245.80 328.98,246.09 329.55,246.38 330.12,246.67 330.69,246.95 331.26,247.24 331.83,247.52 332.40,247.80 332.97,248.09 333.54,248.37 334.11,248.65 334.68,248.93 335.25,249.20 " style="stroke-width: 1.07; stroke-linecap: butt;" clip-path="url(#cpMjIuOTJ8MzU0LjUyfDI2OS4yNnwyMy4wMQ==)"></polyline>
<polyline points="43.85,176.86 46.76,132.20 49.68,110.52 52.59,95.80 55.51,84.77 58.42,76.10 61.33,69.10 64.25,63.37 67.16,58.63 70.08,54.70 72.99,51.46 75.90,48.79 78.82,46.62 81.73,44.90 84.65,43.56 87.56,42.57 90.47,41.89 93.39,41.49 96.30,41.35 99.22,41.45 102.13,41.76 105.04,42.27 107.96,42.97 110.87,43.85 113.79,44.88 116.70,46.06 119.62,47.38 122.53,48.83 125.44,50.41 128.36,52.10 131.27,53.90 134.19,55.80 137.10,57.80 140.01,59.89 142.93,62.07 145.84,64.33 148.76,66.66 151.67,69.07 154.58,71.55 157.50,74.09 160.41,76.69 163.33,79.35 166.24,82.07 169.15,84.83 172.07,87.65 174.98,90.51 177.90,93.41 180.81,96.35 183.72,99.33 186.64,102.35 189.55,105.40 192.47,108.48 195.38,111.59 198.29,114.72 201.21,117.88 204.12,121.06 207.04,124.26 209.95,127.48 212.86,130.71 215.78,133.96 218.69,137.22 221.61,140.49 224.52,143.77 227.43,147.05 230.35,150.34 233.26,153.63 236.18,156.92 239.09,160.21 242.00,163.50 244.92,166.79 247.83,170.06 250.75,173.33 253.66,176.59 256.58,179.84 259.49,183.07 262.40,186.29 265.32,189.49 268.23,192.66 271.15,195.82 274.06,198.95 276.97,202.06 279.89,205.13 282.80,208.18 285.72,211.19 288.63,214.16 291.54,217.10 294.46,219.99 297.37,222.83 300.29,225.63 303.20,228.37 306.11,231.06 309.03,233.69 311.94,236.25 314.86,238.74 317.77,241.15 320.68,243.48 323.60,245.72 326.51,247.86 329.43,249.88 332.34,251.78 335.25,253.53 " style="stroke-width: 1.07; stroke: #0000FF; stroke-dasharray: 5.69,5.69; stroke-linecap: butt;" clip-path="url(#cpMjIuOTJ8MzU0LjUyfDI2OS4yNnwyMy4wMQ==)"></polyline>
<defs> <clipPath id="cpMC4wMHwzNjAuMDB8Mjg4LjAwfDAuMDA="> <rect x="0.00" y="0.00" width="360.00" height="288.00"></rect> </clipPath>
</defs>
<g clip-path="url(#cpMC4wMHwzNjAuMDB8Mjg4LjAwfDAuMDA=)"><text x="5.48" y="261.29" style="font-size: 8.80px; fill: #4D4D4D; font-family: Arial;" textLength="12.51px" lengthAdjust="spacingAndGlyphs">0.0</text></g>
<g clip-path="url(#cpMC4wMHwzNjAuMDB8Mjg4LjAwfDAuMDA=)"><text x="5.48" y="197.33" style="font-size: 8.80px; fill: #4D4D4D; font-family: Arial;" textLength="12.51px" lengthAdjust="spacingAndGlyphs">0.5</text></g>
<g clip-path="url(#cpMC4wMHwzNjAuMDB8Mjg4LjAwfDAuMDA=)"><text x="5.48" y="133.37" style="font-size: 8.80px; fill: #4D4D4D; font-family: Arial;" textLength="12.51px" lengthAdjust="spacingAndGlyphs">1.0</text></g>
<g clip-path="url(#cpMC4wMHwzNjAuMDB8Mjg4LjAwfDAuMDA=)"><text x="5.48" y="69.41" style="font-size: 8.80px; fill: #4D4D4D; font-family: Arial;" textLength="12.51px" lengthAdjust="spacingAndGlyphs">1.5</text></g>
<polyline points="20.18,258.07 22.92,258.07 " style="stroke-width: 1.07; stroke: #333333; stroke-linecap: butt;" clip-path="url(#cpMC4wMHwzNjAuMDB8Mjg4LjAwfDAuMDA=)"></polyline>
<polyline points="20.18,194.11 22.92,194.11 " style="stroke-width: 1.07; stroke: #333333; stroke-linecap: butt;" clip-path="url(#cpMC4wMHwzNjAuMDB8Mjg4LjAwfDAuMDA=)"></polyline>
<polyline points="20.18,130.15 22.92,130.15 " style="stroke-width: 1.07; stroke: #333333; stroke-linecap: butt;" clip-path="url(#cpMC4wMHwzNjAuMDB8Mjg4LjAwfDAuMDA=)"></polyline>
<polyline points="20.18,66.19 22.92,66.19 " style="stroke-width: 1.07; stroke: #333333; stroke-linecap: butt;" clip-path="url(#cpMC4wMHwzNjAuMDB8Mjg4LjAwfDAuMDA=)"></polyline>
<polyline points="43.02,272.00 43.02,269.26 " style="stroke-width: 1.07; stroke: #333333; stroke-linecap: butt;" clip-path="url(#cpMC4wMHwzNjAuMDB8Mjg4LjAwfDAuMDA=)"></polyline>
<polyline points="118.82,272.00 118.82,269.26 " style="stroke-width: 1.07; stroke: #333333; stroke-linecap: butt;" clip-path="url(#cpMC4wMHwzNjAuMDB8Mjg4LjAwfDAuMDA=)"></polyline>
<polyline points="194.62,272.00 194.62,269.26 " style="stroke-width: 1.07; stroke: #333333; stroke-linecap: butt;" clip-path="url(#cpMC4wMHwzNjAuMDB8Mjg4LjAwfDAuMDA=)"></polyline>
<polyline points="270.42,272.00 270.42,269.26 " style="stroke-width: 1.07; stroke: #333333; stroke-linecap: butt;" clip-path="url(#cpMC4wMHwzNjAuMDB8Mjg4LjAwfDAuMDA=)"></polyline>
<polyline points="346.21,272.00 346.21,269.26 " style="stroke-width: 1.07; stroke: #333333; stroke-linecap: butt;" clip-path="url(#cpMC4wMHwzNjAuMDB8Mjg4LjAwfDAuMDA=)"></polyline>
<g clip-path="url(#cpMC4wMHwzNjAuMDB8Mjg4LjAwfDAuMDA=)"><text x="34.26" y="280.63" style="font-size: 8.80px; fill: #4D4D4D; font-family: Arial;" textLength="17.52px" lengthAdjust="spacingAndGlyphs">0.00</text></g>
<g clip-path="url(#cpMC4wMHwzNjAuMDB8Mjg4LjAwfDAuMDA=)"><text x="110.06" y="280.63" style="font-size: 8.80px; fill: #4D4D4D; font-family: Arial;" textLength="17.52px" lengthAdjust="spacingAndGlyphs">0.25</text></g>
<g clip-path="url(#cpMC4wMHwzNjAuMDB8Mjg4LjAwfDAuMDA=)"><text x="185.86" y="280.63" style="font-size: 8.80px; fill: #4D4D4D; font-family: Arial;" textLength="17.52px" lengthAdjust="spacingAndGlyphs">0.50</text></g>
<g clip-path="url(#cpMC4wMHwzNjAuMDB8Mjg4LjAwfDAuMDA=)"><text x="261.66" y="280.63" style="font-size: 8.80px; fill: #4D4D4D; font-family: Arial;" textLength="17.52px" lengthAdjust="spacingAndGlyphs">0.75</text></g>
<g clip-path="url(#cpMC4wMHwzNjAuMDB8Mjg4LjAwfDAuMDA=)"><text x="337.46" y="280.63" style="font-size: 8.80px; fill: #4D4D4D; font-family: Arial;" textLength="17.52px" lengthAdjust="spacingAndGlyphs">1.00</text></g>
<g clip-path="url(#cpMC4wMHwzNjAuMDB8Mjg4LjAwfDAuMDA=)"><text x="22.92" y="14.79" style="font-size: 13.20px; font-family: Arial;" textLength="95.38px" lengthAdjust="spacingAndGlyphs">Beta Distribution</text></g>
</svg>
