<?xml version="1.0"?>

<svg xmlns="http://www.w3.org/2000/svg" xmlns:xlink="http://www.w3.org/1999/xlink" viewBox="0 0 360.00 288.00" width="360.00" height="288.00">
<defs> <style type="text/css"> line, polyline, polygon, path, rect, circle { fill: none; stroke: #000000; stroke-linecap: round; stroke-linejoin: round; stroke-miterlimit: 10.00; } </style>
</defs>
<rect width="100%" height="100%" style="stroke: none; fill: #FFFFFF;"></rect>
<rect x="0.00" y="0.00" width="360.00" height="288.00" style="stroke-width: 1.07; stroke: #FFFFFF; fill: #FFFFFF;"></rect>
<defs> <clipPath id="cpMjIuOTJ8MzU0LjUyfDI2OS4yNnwyMy4wMQ=="> <rect x="22.92" y="23.01" width="331.60" height="246.26"></rect> </clipPath>
</defs>
<rect x="22.92" y="23.01" width="331.60" height="246.26" style="stroke-width: 1.07; stroke: none; fill: #EBEBEB;" clip-path="url(#cpMjIuOTJ8MzU0LjUyfDI2OS4yNnwyMy4wMQ==)"></rect>
<polyline points="22.92,227.61 354.52,227.61 " style="stroke-width: 0.53; stroke: #FFFFFF; stroke-linecap: butt;" clip-path="url(#cpMjIuOTJ8MzU0LjUyfDI2OS4yNnwyMy4wMQ==)"></polyline>
<polyline points="22.92,166.71 354.52,166.71 " style="stroke-width: 0.53; stroke: #FFFFFF; stroke-linecap: butt;" clip-path="url(#cpMjIuOTJ8MzU0LjUyfDI2OS4yNnwyMy4wMQ==)"></polyline>
<polyline points="22.92,105.80 354.52,105.80 " style="stroke-width: 0.53; stroke: #FFFFFF; stroke-linecap: butt;" clip-path="url(#cpMjIuOTJ8MzU0LjUyfDI2OS4yNnwyMy4wMQ==)"></polyline>
<polyline points="22.92,44.89 354.52,44.89 " style="stroke-width: 0.53; stroke: #FFFFFF; stroke-linecap: butt;" clip-path="url(#cpMjIuOTJ8MzU0LjUyfDI2OS4yNnwyMy4wMQ==)"></polyline>
<polyline points="81.63,269.26 81.63,23.01 " style="stroke-width: 0.53; stroke: #FFFFFF; stroke-linecap: butt;" clip-path="url(#cpMjIuOTJ8MzU0LjUyfDI2OS4yNnwyMy4wMQ==)"></polyline>
<polyline points="158.86,269.26 158.86,23.01 " style="stroke-width: 0.53; stroke: #FFFFFF; stroke-linecap: butt;" clip-path="url(#cpMjIuOTJ8MzU0LjUyfDI2OS4yNnwyMy4wMQ==)"></polyline>
<polyline points="236.08,269.26 236.08,23.01 " style="stroke-width: 0.53; stroke: #FFFFFF; stroke-linecap: butt;" clip-path="url(#cpMjIuOTJ8MzU0LjUyfDI2OS4yNnwyMy4wMQ==)"></polyline>
<polyline points="313.31,269.26 313.31,23.01 " style="stroke-width: 0.53; stroke: #FFFFFF; stroke-linecap: butt;" clip-path="url(#cpMjIuOTJ8MzU0LjUyfDI2OS4yNnwyMy4wMQ==)"></polyline>
<polyline points="22.92,258.07 354.52,258.07 " style="stroke-width: 1.07; stroke: #FFFFFF; stroke-linecap: butt;" clip-path="url(#cpMjIuOTJ8MzU0LjUyfDI2OS4yNnwyMy4wMQ==)"></polyline>
<polyline points="22.92,197.16 354.52,197.16 " style="stroke-width: 1.07; stroke: #FFFFFF; stroke-linecap: butt;" clip-path="url(#cpMjIuOTJ8MzU0LjUyfDI2OS4yNnwyMy4wMQ==)"></polyline>
<polyline points="22.92,136.25 354.52,136.25 " style="stroke-width: 1.07; stroke: #FFFFFF; stroke-linecap: butt;" clip-path="url(#cpMjIuOTJ8MzU0LjUyfDI2OS4yNnwyMy4wMQ==)"></polyline>
<polyline points="22.92,75.34 354.52,75.34 " style="stroke-width: 1.07; stroke: #FFFFFF; stroke-linecap: butt;" clip-path="url(#cpMjIuOTJ8MzU0LjUyfDI2OS4yNnwyMy4wMQ==)"></polyline>
<polyline points="43.02,269.26 43.02,23.01 " style="stroke-width: 1.07; stroke: #FFFFFF; stroke-linecap: butt;" clip-path="url(#cpMjIuOTJ8MzU0LjUyfDI2OS4yNnwyMy4wMQ==)"></polyline>
<polyline points="120.24,269.26 120.24,23.01 " style="stroke-width: 1.07; stroke: #FFFFFF; stroke-linecap: butt;" clip-path="url(#cpMjIuOTJ8MzU0LjUyfDI2OS4yNnwyMy4wMQ==)"></polyline>
<polyline points="197.47,269.26 197.47,23.01 " style="stroke-width: 1.07; stroke: #FFFFFF; stroke-linecap: butt;" clip-path="url(#cpMjIuOTJ8MzU0LjUyfDI2OS4yNnwyMy4wMQ==)"></polyline>
<polyline points="274.70,269.26 274.70,23.01 " style="stroke-width: 1.07; stroke: #FFFFFF; stroke-linecap: butt;" clip-path="url(#cpMjIuOTJ8MzU0LjUyfDI2OS4yNnwyMy4wMQ==)"></polyline>
<polyline points="351.92,269.26 351.92,23.01 " style="stroke-width: 1.07; stroke: #FFFFFF; stroke-linecap: butt;" clip-path="url(#cpMjIuOTJ8MzU0LjUyfDI2OS4yNnwyMy4wMQ==)"></polyline>
<rect x="37.99" y="231.54" width="10.05" height="26.53" style="stroke-width: 1.07; stroke: #D3D3D3; stroke-linecap: square; stroke-linejoin: miter; fill: #BEBEBE;" clip-path="url(#cpMjIuOTJ8MzU0LjUyfDI2OS4yNnwyMy4wMQ==)"></rect>
<rect x="48.04" y="117.64" width="10.05" height="140.43" style="stroke-width: 1.07; stroke: #D3D3D3; stroke-linecap: square; stroke-linejoin: miter; fill: #BEBEBE;" clip-path="url(#cpMjIuOTJ8MzU0LjUyfDI2OS4yNnwyMy4wMQ==)"></rect>
<rect x="58.09" y="36.50" width="10.05" height="221.57" style="stroke-width: 1.07; stroke: #D3D3D3; stroke-linecap: square; stroke-linejoin: miter; fill: #BEBEBE;" clip-path="url(#cpMjIuOTJ8MzU0LjUyfDI2OS4yNnwyMy4wMQ==)"></rect>
<rect x="68.14" y="38.06" width="10.05" height="220.01" style="stroke-width: 1.07; stroke: #D3D3D3; stroke-linecap: square; stroke-linejoin: miter; fill: #BEBEBE;" clip-path="url(#cpMjIuOTJ8MzU0LjUyfDI2OS4yNnwyMy4wMQ==)"></rect>
<rect x="78.19" y="38.06" width="10.05" height="220.01" style="stroke-width: 1.07; stroke: #D3D3D3; stroke-linecap: square; stroke-linejoin: miter; fill: #BEBEBE;" clip-path="url(#cpMjIuOTJ8MzU0LjUyfDI2OS4yNnwyMy4wMQ==)"></rect>
<rect x="88.24" y="81.75" width="10.05" height="176.32" style="stroke-width: 1.07; stroke: #D3D3D3; stroke-linecap: square; stroke-linejoin: miter; fill: #BEBEBE;" clip-path="url(#cpMjIuOTJ8MzU0LjUyfDI2OS4yNnwyMy4wMQ==)"></rect>
<rect x="98.29" y="137.92" width="10.05" height="120.15" style="stroke-width: 1.07; stroke: #D3D3D3; stroke-linecap: square; stroke-linejoin: miter; fill: #BEBEBE;" clip-path="url(#cpMjIuOTJ8MzU0LjUyfDI2OS4yNnwyMy4wMQ==)"></rect>
<rect x="108.33" y="172.25" width="10.05" height="85.82" style="stroke-width: 1.07; stroke: #D3D3D3; stroke-linecap: square; stroke-linejoin: miter; fill: #BEBEBE;" clip-path="url(#cpMjIuOTJ8MzU0LjUyfDI2OS4yNnwyMy4wMQ==)"></rect>
<rect x="118.38" y="161.33" width="10.05" height="96.74" style="stroke-width: 1.07; stroke: #D3D3D3; stroke-linecap: square; stroke-linejoin: miter; fill: #BEBEBE;" clip-path="url(#cpMjIuOTJ8MzU0LjUyfDI2OS4yNnwyMy4wMQ==)"></rect>
<rect x="128.43" y="187.85" width="10.05" height="70.21" style="stroke-width: 1.07; stroke: #D3D3D3; stroke-linecap: square; stroke-linejoin: miter; fill: #BEBEBE;" clip-path="url(#cpMjIuOTJ8MzU0LjUyfDI2OS4yNnwyMy4wMQ==)"></rect>
<rect x="138.48" y="208.14" width="10.05" height="49.93" style="stroke-width: 1.07; stroke: #D3D3D3; stroke-linecap: square; stroke-linejoin: miter; fill: #BEBEBE;" clip-path="url(#cpMjIuOTJ8MzU0LjUyfDI2OS4yNnwyMy4wMQ==)"></rect>
<rect x="148.53" y="225.30" width="10.05" height="32.77" style="stroke-width: 1.07; stroke: #D3D3D3; stroke-linecap: square; stroke-linejoin: miter; fill: #BEBEBE;" clip-path="url(#cpMjIuOTJ8MzU0LjUyfDI2OS4yNnwyMy4wMQ==)"></rect>
<rect x="158.58" y="240.90" width="10.05" height="17.16" style="stroke-width: 1.07; stroke: #D3D3D3; stroke-linecap: square; stroke-linejoin: miter; fill: #BEBEBE;" clip-path="url(#cpMjIuOTJ8MzU0LjUyfDI2OS4yNnwyMy4wMQ==)"></rect>
<rect x="168.62" y="234.66" width="10.05" height="23.40" style="stroke-width: 1.07; stroke: #D3D3D3; stroke-linecap: square; stroke-linejoin: miter; fill: #BEBEBE;" clip-path="url(#cpMjIuOTJ8MzU0LjUyfDI2OS4yNnwyMy4wMQ==)"></rect>
<rect x="178.67" y="237.78" width="10.05" height="20.28" style="stroke-width: 1.07; stroke: #D3D3D3; stroke-linecap: square; stroke-linejoin: miter; fill: #BEBEBE;" clip-path="url(#cpMjIuOTJ8MzU0LjUyfDI2OS4yNnwyMy4wMQ==)"></rect>
<rect x="188.72" y="247.15" width="10.05" height="10.92" style="stroke-width: 1.07; stroke: #D3D3D3; stroke-linecap: square; stroke-linejoin: miter; fill: #BEBEBE;" clip-path="url(#cpMjIuOTJ8MzU0LjUyfDI2OS4yNnwyMy4wMQ==)"></rect>
<rect x="198.77" y="248.71" width="10.05" height="9.36" style="stroke-width: 1.07; stroke: #D3D3D3; stroke-linecap: square; stroke-linejoin: miter; fill: #BEBEBE;" clip-path="url(#cpMjIuOTJ8MzU0LjUyfDI2OS4yNnwyMy4wMQ==)"></rect>
<rect x="208.82" y="250.27" width="10.05" height="7.80" style="stroke-width: 1.07; stroke: #D3D3D3; stroke-linecap: square; stroke-linejoin: miter; fill: #BEBEBE;" clip-path="url(#cpMjIuOTJ8MzU0LjUyfDI2OS4yNnwyMy4wMQ==)"></rect>
<rect x="218.87" y="254.95" width="10.05" height="3.12" style="stroke-width: 1.07; stroke: #D3D3D3; stroke-linecap: square; stroke-linejoin: miter; fill: #BEBEBE;" clip-path="url(#cpMjIuOTJ8MzU0LjUyfDI2OS4yNnwyMy4wMQ==)"></rect>
<rect x="228.92" y="258.07" width="10.05" height="0.00" style="stroke-width: 1.07; stroke: #D3D3D3; stroke-linecap: square; stroke-linejoin: miter; fill: #BEBEBE;" clip-path="url(#cpMjIuOTJ8MzU0LjUyfDI2OS4yNnwyMy4wMQ==)"></rect>
<rect x="238.96" y="256.51" width="10.05" height="1.56" style="stroke-width: 1.07; stroke: #D3D3D3; stroke-linecap: square; stroke-linejoin: miter; fill: #BEBEBE;" clip-path="url(#cpMjIuOTJ8MzU0LjUyfDI2OS4yNnwyMy4wMQ==)"></rect>
<rect x="249.01" y="256.51" width="10.05" height="1.56" style="stroke-width: 1.07; stroke: #D3D3D3; stroke-linecap: square; stroke-linejoin: miter; fill: #BEBEBE;" clip-path="url(#cpMjIuOTJ8MzU0LjUyfDI2OS4yNnwyMy4wMQ==)"></rect>
<rect x="259.06" y="258.07" width="10.05" height="0.00" style="stroke-width: 1.07; stroke: #D3D3D3; stroke-linecap: square; stroke-linejoin: miter; fill: #BEBEBE;" clip-path="url(#cpMjIuOTJ8MzU0LjUyfDI2OS4yNnwyMy4wMQ==)"></rect>
<rect x="269.11" y="258.07" width="10.05" height="0.00" style="stroke-width: 1.07; stroke: #D3D3D3; stroke-linecap: square; stroke-linejoin: miter; fill: #BEBEBE;" clip-path="url(#cpMjIuOTJ8MzU0LjUyfDI2OS4yNnwyMy4wMQ==)"></rect>
<rect x="279.16" y="258.07" width="10.05" height="0.00" style="stroke-width: 1.07; stroke: #D3D3D3; stroke-linecap: square; stroke-linejoin: miter; fill: #BEBEBE;" clip-path="url(#cpMjIuOTJ8MzU0LjUyfDI2OS4yNnwyMy4wMQ==)"></rect>
<rect x="289.21" y="256.51" width="10.05" height="1.56" style="stroke-width: 1.07; stroke: #D3D3D3; stroke-linecap: square; stroke-linejoin: miter; fill: #BEBEBE;" clip-path="url(#cpMjIuOTJ8MzU0LjUyfDI2OS4yNnwyMy4wMQ==)"></rect>
<rect x="299.25" y="258.07" width="10.05" height="0.00" style="stroke-width: 1.07; stroke: #D3D3D3; stroke-linecap: square; stroke-linejoin: miter; fill: #BEBEBE;" clip-path="url(#cpMjIuOTJ8MzU0LjUyfDI2OS4yNnwyMy4wMQ==)"></rect>
<rect x="309.30" y="258.07" width="10.05" height="0.00" style="stroke-width: 1.07; stroke: #D3D3D3; stroke-linecap: square; stroke-linejoin: miter; fill: #BEBEBE;" clip-path="url(#cpMjIuOTJ8MzU0LjUyfDI2OS4yNnwyMy4wMQ==)"></rect>
<rect x="319.35" y="256.51" width="10.05" height="1.56" style="stroke-width: 1.07; stroke: #D3D3D3; stroke-linecap: square; stroke-linejoin: miter; fill: #BEBEBE;" clip-path="url(#cpMjIuOTJ8MzU0LjUyfDI2OS4yNnwyMy4wMQ==)"></rect>
<rect x="329.40" y="256.51" width="10.05" height="1.56" style="stroke-width: 1.07; stroke: #D3D3D3; stroke-linecap: square; stroke-linejoin: miter; fill: #BEBEBE;" clip-path="url(#cpMjIuOTJ8MzU0LjUyfDI2OS4yNnwyMy4wMQ==)"></rect>
<polyline points="43.64,203.09 44.21,198.76 44.78,194.28 45.35,189.70 45.92,185.03 46.49,180.27 47.06,175.44 47.63,170.55 48.20,165.62 48.77,160.66 49.34,155.69 49.91,150.72 50.48,145.75 51.05,140.81 51.62,135.91 52.19,131.05 52.76,126.24 53.33,121.49 53.90,116.81 54.47,112.23 55.04,107.73 55.61,103.33 56.18,99.03 56.75,94.85 57.32,90.78 57.89,86.87 58.46,83.10 59.03,79.47 59.60,75.99 60.17,72.67 60.74,69.53 61.31,66.59 61.88,63.82 62.45,61.23 63.02,58.83 63.60,56.61 64.17,54.61 64.74,52.81 65.31,51.18 65.88,49.74 66.45,48.46 67.02,47.36 67.59,46.44 68.16,45.68 68.73,45.06 69.30,44.56 69.87,44.19 70.44,43.92 71.01,43.78 71.58,43.72 72.15,43.74 72.72,43.82 73.29,43.96 73.86,44.15 74.43,44.40 75.00,44.67 75.57,44.99 76.14,45.32 76.71,45.69 77.28,46.09 77.85,46.51 78.42,46.97 78.99,47.45 79.56,47.97 80.13,48.53 80.70,49.14 81.27,49.80 81.84,50.52 82.41,51.29 82.98,52.13 83.55,53.04 84.12,54.04 84.69,55.12 85.27,56.28 85.84,57.52 86.41,58.84 86.98,60.25 87.55,61.77 88.12,63.36 88.69,65.03 89.26,66.79 89.83,68.62 90.40,70.53 90.97,72.52 91.54,74.58 92.11,76.71 92.68,78.90 93.25,81.15 93.82,83.46 94.39,85.84 94.96,88.26 95.53,90.74 96.10,93.27 96.67,95.84 97.24,98.46 97.81,101.12 98.38,103.82 98.95,106.54 99.52,109.28 100.09,112.05 100.66,114.82 101.23,117.60 101.80,120.37 102.37,123.12 102.94,125.85 103.51,128.55 104.08,131.19 104.65,133.77 105.22,136.29 105.79,138.73 106.36,141.09 106.94,143.35 107.51,145.49 108.08,147.52 108.65,149.45 109.22,151.26 109.79,152.95 110.36,154.51 110.93,155.94 111.50,157.25 112.07,158.45 112.64,159.55 113.21,160.54 113.78,161.42 114.35,162.21 114.92,162.93 115.49,163.59 116.06,164.19 116.63,164.74 117.20,165.25 117.77,165.74 118.34,166.22 118.91,166.70 119.48,167.18 120.05,167.68 120.62,168.21 121.19,168.77 121.76,169.36 122.33,169.99 122.90,170.65 123.47,171.37 124.04,172.13 124.61,172.94 125.18,173.78 125.75,174.66 126.32,175.58 126.89,176.53 127.46,177.51 128.03,178.50 128.61,179.51 129.18,180.54 129.75,181.57 130.32,182.60 130.89,183.64 131.46,184.67 132.03,185.69 132.60,186.71 133.17,187.72 133.74,188.71 134.31,189.70 134.88,190.68 135.45,191.66 136.02,192.62 136.59,193.58 137.16,194.54 137.73,195.51 138.30,196.47 138.87,197.44 139.44,198.41 140.01,199.39 140.58,200.38 141.15,201.39 141.72,202.41 142.29,203.43 142.86,204.48 143.43,205.53 144.00,206.60 144.57,207.68 145.14,208.77 145.71,209.86 146.28,210.96 146.85,212.07 147.42,213.17 147.99,214.27 148.56,215.37 149.13,216.46 149.70,217.54 150.28,218.60 150.85,219.64 151.42,220.67 151.99,221.68 152.56,222.66 153.13,223.62 153.70,224.55 154.27,225.44 154.84,226.31 155.41,227.15 155.98,227.95 156.55,228.71 157.12,229.44 157.69,230.12 158.26,230.78 158.83,231.39 159.40,231.97 159.97,232.50 160.54,233.00 161.11,233.45 161.68,233.87 162.25,234.25 162.82,234.59 163.39,234.89 163.96,235.16 164.53,235.39 165.10,235.59 165.67,235.76 166.24,235.90 166.81,236.01 167.38,236.10 167.95,236.17 168.52,236.22 169.09,236.25 169.66,236.27 170.23,236.28 170.80,236.29 171.38,236.29 171.95,236.30 172.52,236.30 173.09,236.31 173.66,236.33 174.23,236.36 174.80,236.40 175.37,236.45 175.94,236.52 176.51,236.61 177.08,236.71 177.65,236.84 178.22,236.98 178.79,237.14 179.36,237.32 179.93,237.52 180.50,237.75 181.07,237.99 181.64,238.26 182.21,238.54 182.78,238.84 183.35,239.16 183.92,239.49 184.49,239.84 185.06,240.20 185.63,240.58 186.20,240.96 186.77,241.36 187.34,241.76 187.91,242.17 188.48,242.59 189.05,243.00 189.62,243.41 190.19,243.83 190.76,244.23 191.33,244.63 191.90,245.02 192.47,245.41 193.05,245.77 193.62,246.13 194.19,246.46 194.76,246.79 195.33,247.09 195.90,247.37 196.47,247.64 197.04,247.88 197.61,248.10 198.18,248.31 198.75,248.49 199.32,248.66 199.89,248.80 200.46,248.93 201.03,249.05 201.60,249.15 202.17,249.24 202.74,249.32 203.31,249.39 203.88,249.45 204.45,249.51 205.02,249.56 205.59,249.61 206.16,249.67 206.73,249.72 207.30,249.77 207.87,249.83 208.44,249.89 209.01,249.96 209.58,250.03 210.15,250.11 210.72,250.20 211.29,250.29 211.86,250.39 212.43,250.50 213.00,250.62 213.57,250.75 214.14,250.89 214.72,251.04 215.29,251.19 215.86,251.35 216.43,251.53 217.00,251.71 217.57,251.90 218.14,252.09 218.71,252.29 219.28,252.50 219.85,252.72 220.42,252.94 220.99,253.16 221.56,253.39 222.13,253.62 222.70,253.84 223.27,254.07 223.84,254.30 224.41,254.53 224.98,254.75 225.55,254.97 226.12,255.18 226.69,255.38 227.26,255.58 227.83,255.77 228.40,255.95 228.97,256.12 229.54,256.27 230.11,256.42 230.68,256.55 231.25,256.68 231.82,256.79 232.39,256.89 232.96,256.98 233.53,257.05 234.10,257.12 234.67,257.17 235.24,257.22 235.81,257.25 236.39,257.27 236.96,257.29 237.53,257.30 238.10,257.30 238.67,257.29 239.24,257.28 239.81,257.27 240.38,257.25 240.95,257.22 241.52,257.20 242.09,257.17 242.66,257.15 243.23,257.12 243.80,257.09 244.37,257.07 244.94,257.04 245.51,257.02 246.08,257.00 246.65,256.97 247.22,256.96 247.79,256.94 248.36,256.93 248.93,256.91 249.50,256.90 250.07,256.90 250.64,256.89 251.21,256.89 251.78,256.89 252.35,256.89 252.92,256.89 253.49,256.89 254.06,256.90 254.63,256.91 255.20,256.92 255.77,256.94 256.34,256.96 256.91,256.98 257.48,257.00 258.06,257.02 258.63,257.05 259.20,257.08 259.77,257.11 260.34,257.15 260.91,257.18 261.48,257.22 262.05,257.26 262.62,257.31 263.19,257.35 263.76,257.39 264.33,257.44 264.90,257.48 265.47,257.52 266.04,257.56 266.61,257.61 267.18,257.65 267.75,257.68 268.32,257.72 268.89,257.76 269.46,257.79 270.03,257.82 270.60,257.85 271.17,257.87 271.74,257.90 272.31,257.92 272.88,257.94 273.45,257.95 274.02,257.97 274.59,257.98 275.16,257.99 275.73,258.00 276.30,258.00 276.87,258.01 277.44,258.01 278.01,258.01 278.58,258.01 279.15,258.01 279.73,258.00 280.30,258.00 280.87,257.99 281.44,257.98 282.01,257.97 282.58,257.95 283.15,257.94 283.72,257.92 284.29,257.90 284.86,257.88 285.43,257.85 286.00,257.82 286.57,257.79 287.14,257.76 287.71,257.73 288.28,257.70 288.85,257.66 289.42,257.62 289.99,257.59 290.56,257.55 291.13,257.51 291.70,257.48 292.27,257.44 292.84,257.41 293.41,257.38 293.98,257.35 294.55,257.32 295.12,257.30 295.69,257.28 296.26,257.26 296.83,257.25 297.40,257.24 297.97,257.24 298.54,257.24 299.11,257.25 299.68,257.26 300.25,257.27 300.82,257.29 301.40,257.31 301.97,257.33 302.54,257.36 303.11,257.38 303.68,257.41 304.25,257.44 304.82,257.47 305.39,257.49 305.96,257.52 306.53,257.54 307.10,257.56 307.67,257.58 308.24,257.59 308.81,257.60 309.38,257.61 309.95,257.61 310.52,257.61 311.09,257.60 311.66,257.59 312.23,257.58 312.80,257.56 313.37,257.54 313.94,257.52 314.51,257.49 315.08,257.46 315.65,257.42 316.22,257.39 316.79,257.36 317.36,257.32 317.93,257.28 318.50,257.25 319.07,257.21 319.64,257.18 320.21,257.14 320.78,257.11 321.35,257.08 321.92,257.05 322.49,257.03 323.07,257.01 323.64,256.99 324.21,256.97 324.78,256.95 325.35,256.94 325.92,256.93 326.49,256.92 327.06,256.91 327.63,256.91 328.20,256.90 328.77,256.90 329.34,256.90 329.91,256.91 330.48,256.91 331.05,256.92 331.62,256.93 332.19,256.94 332.76,256.96 333.33,256.97 333.90,256.99 334.47,257.01 335.04,257.04 " style="stroke-width: 1.07; stroke-linecap: butt;" clip-path="url(#cpMjIuOTJ8MzU0LjUyfDI2OS4yNnwyMy4wMQ==)"></polyline>
<polyline points="43.64,243.82 46.55,185.23 49.46,139.35 52.38,104.12 55.29,77.80 58.21,58.87 61.12,46.06 64.03,38.27 66.95,34.58 69.86,34.20 72.78,36.46 75.69,40.80 78.60,46.75 81.52,53.91 84.43,61.97 87.35,70.63 90.26,79.69 93.17,88.96 96.09,98.28 99.00,107.55 101.92,116.66 104.83,125.55 107.75,134.16 110.66,142.44 113.57,150.36 116.49,157.92 119.40,165.09 122.32,171.88 125.23,178.27 128.14,184.29 131.06,189.93 133.97,195.21 136.89,200.14 139.80,204.73 142.71,209.01 145.63,212.98 148.54,216.66 151.46,220.07 154.37,223.22 157.28,226.14 160.20,228.83 163.11,231.31 166.03,233.59 168.94,235.70 171.85,237.63 174.77,239.40 177.68,241.03 180.60,242.53 183.51,243.90 186.42,245.15 189.34,246.30 192.25,247.35 195.17,248.31 198.08,249.19 200.99,249.99 203.91,250.72 206.82,251.39 209.74,252.00 212.65,252.55 215.56,253.06 218.48,253.52 221.39,253.94 224.31,254.32 227.22,254.67 230.13,254.98 233.05,255.27 235.96,255.53 238.88,255.77 241.79,255.98 244.71,256.18 247.62,256.36 250.53,256.52 253.45,256.66 256.36,256.80 259.28,256.92 262.19,257.03 265.10,257.13 268.02,257.22 270.93,257.30 273.85,257.37 276.76,257.44 279.67,257.50 282.59,257.55 285.50,257.60 288.42,257.65 291.33,257.69 294.24,257.72 297.16,257.76 300.07,257.79 302.99,257.81 305.90,257.84 308.81,257.86 311.73,257.88 314.64,257.90 317.56,257.92 320.47,257.93 323.38,257.94 326.30,257.96 329.21,257.97 332.13,257.98 335.04,257.99 " style="stroke-width: 1.07; stroke: #0000FF; stroke-dasharray: 5.69,5.69; stroke-linecap: butt;" clip-path="url(#cpMjIuOTJ8MzU0LjUyfDI2OS4yNnwyMy4wMQ==)"></polyline>
<defs> <clipPath id="cpMC4wMHwzNjAuMDB8Mjg4LjAwfDAuMDA="> <rect x="0.00" y="0.00" width="360.00" height="288.00"></rect> </clipPath>
</defs>
<g clip-path="url(#cpMC4wMHwzNjAuMDB8Mjg4LjAwfDAuMDA=)"><text x="5.48" y="261.29" style="font-size: 8.80px; fill: #4D4D4D; font-family: Arial;" textLength="12.51px" lengthAdjust="spacingAndGlyphs">0.0</text></g>
<g clip-path="url(#cpMC4wMHwzNjAuMDB8Mjg4LjAwfDAuMDA=)"><text x="5.48" y="200.38" style="font-size: 8.80px; fill: #4D4D4D; font-family: Arial;" textLength="12.51px" lengthAdjust="spacingAndGlyphs">0.1</text></g>
<g clip-path="url(#cpMC4wMHwzNjAuMDB8Mjg4LjAwfDAuMDA=)"><text x="5.48" y="139.47" style="font-size: 8.80px; fill: #4D4D4D; font-family: Arial;" textLength="12.51px" lengthAdjust="spacingAndGlyphs">0.2</text></g>
<g clip-path="url(#cpMC4wMHwzNjAuMDB8Mjg4LjAwfDAuMDA=)"><text x="5.48" y="78.56" style="font-size: 8.80px; fill: #4D4D4D; font-family: Arial;" textLength="12.51px" lengthAdjust="spacingAndGlyphs">0.3</text></g>
<polyline points="20.18,258.07 22.92,258.07 " style="stroke-width: 1.07; stroke: #333333; stroke-linecap: butt;" clip-path="url(#cpMC4wMHwzNjAuMDB8Mjg4LjAwfDAuMDA=)"></polyline>
<polyline points="20.18,197.16 22.92,197.16 " style="stroke-width: 1.07; stroke: #333333; stroke-linecap: butt;" clip-path="url(#cpMC4wMHwzNjAuMDB8Mjg4LjAwfDAuMDA=)"></polyline>
<polyline points="20.18,136.25 22.92,136.25 " style="stroke-width: 1.07; stroke: #333333; stroke-linecap: butt;" clip-path="url(#cpMC4wMHwzNjAuMDB8Mjg4LjAwfDAuMDA=)"></polyline>
<polyline points="20.18,75.34 22.92,75.34 " style="stroke-width: 1.07; stroke: #333333; stroke-linecap: butt;" clip-path="url(#cpMC4wMHwzNjAuMDB8Mjg4LjAwfDAuMDA=)"></polyline>
<polyline points="43.02,272.00 43.02,269.26 " style="stroke-width: 1.07; stroke: #333333; stroke-linecap: butt;" clip-path="url(#cpMC4wMHwzNjAuMDB8Mjg4LjAwfDAuMDA=)"></polyline>
<polyline points="120.24,272.00 120.24,269.26 " style="stroke-width: 1.07; stroke: #333333; stroke-linecap: butt;" clip-path="url(#cpMC4wMHwzNjAuMDB8Mjg4LjAwfDAuMDA=)"></polyline>
<polyline points="197.47,272.00 197.47,269.26 " style="stroke-width: 1.07; stroke: #333333; stroke-linecap: butt;" clip-path="url(#cpMC4wMHwzNjAuMDB8Mjg4LjAwfDAuMDA=)"></polyline>
<polyline points="274.70,272.00 274.70,269.26 " style="stroke-width: 1.07; stroke: #333333; stroke-linecap: butt;" clip-path="url(#cpMC4wMHwzNjAuMDB8Mjg4LjAwfDAuMDA=)"></polyline>
<polyline points="351.92,272.00 351.92,269.26 " style="stroke-width: 1.07; stroke: #333333; stroke-linecap: butt;" clip-path="url(#cpMC4wMHwzNjAuMDB8Mjg4LjAwfDAuMDA=)"></polyline>
<g clip-path="url(#cpMC4wMHwzNjAuMDB8Mjg4LjAwfDAuMDA=)"><text x="40.52" y="280.63" style="font-size: 8.80px; fill: #4D4D4D; font-family: Arial;" textLength="5.01px" lengthAdjust="spacingAndGlyphs">0</text></g>
<g clip-path="url(#cpMC4wMHwzNjAuMDB8Mjg4LjAwfDAuMDA=)"><text x="117.74" y="280.63" style="font-size: 8.80px; fill: #4D4D4D; font-family: Arial;" textLength="5.01px" lengthAdjust="spacingAndGlyphs">3</text></g>
<g clip-path="url(#cpMC4wMHwzNjAuMDB8Mjg4LjAwfDAuMDA=)"><text x="194.97" y="280.63" style="font-size: 8.80px; fill: #4D4D4D; font-family: Arial;" textLength="5.01px" lengthAdjust="spacingAndGlyphs">6</text></g>
<g clip-path="url(#cpMC4wMHwzNjAuMDB8Mjg4LjAwfDAuMDA=)"><text x="272.19" y="280.63" style="font-size: 8.80px; fill: #4D4D4D; font-family: Arial;" textLength="5.01px" lengthAdjust="spacingAndGlyphs">9</text></g>
<g clip-path="url(#cpMC4wMHwzNjAuMDB8Mjg4LjAwfDAuMDA=)"><text x="346.92" y="280.63" style="font-size: 8.80px; fill: #4D4D4D; font-family: Arial;" textLength="10.01px" lengthAdjust="spacingAndGlyphs">12</text></g>
<g clip-path="url(#cpMC4wMHwzNjAuMDB8Mjg4LjAwfDAuMDA=)"><text x="22.92" y="14.79" style="font-size: 13.20px; font-family: Arial;" textLength="114.87px" lengthAdjust="spacingAndGlyphs">Gamma Distribution</text></g>
</svg>
